<svg width="329" height="364" viewBox="0 0 329 364" fill="none" xmlns="http://www.w3.org/2000/svg">
<g clip-path="url(#clip0_202_11193)">
<g style="mix-blend-mode:multiply">
<path d="M150.067 291.981C229.92 291.981 294.654 288.753 294.654 284.77C294.654 280.788 229.92 277.56 150.067 277.56C70.2137 277.56 5.47998 280.788 5.47998 284.77C5.47998 288.753 70.2137 291.981 150.067 291.981Z" fill="#C3C0DD"/>
</g>
<path d="M250.599 156.88L272.54 155.784C276.789 155.572 280.116 152.073 280.116 147.823C280.116 143.42 276.539 139.862 272.155 139.862H265.059C261.04 139.862 257.406 142.227 255.772 145.881L253.926 150.015H243.638L250.618 156.88H250.599Z" fill="url(#paint0_linear_202_11193)"/>
<path style="mix-blend-mode:screen" d="M273.943 141.228H267.732C264.886 141.228 262.579 143.535 262.579 146.381V148.746C262.579 151.592 264.886 153.899 267.732 153.899H273.943C276.789 153.899 279.097 151.592 279.097 148.746V146.381C279.097 143.535 276.789 141.228 273.943 141.228Z" fill="url(#paint1_linear_202_11193)"/>
<path d="M251.061 245.37H44.2085V267.483H251.061V245.37Z" fill="url(#paint2_linear_202_11193)"/>
<path d="M19.6714 241.832H56.5729V280.617C56.5729 283.655 54.1115 286.116 51.0732 286.116H25.171C22.1328 286.116 19.6714 283.655 19.6714 280.617V241.832Z" fill="url(#paint3_linear_202_11193)"/>
<path d="M275.405 286.135H249.503C246.465 286.135 244.003 283.673 244.003 280.635V241.851H280.924V280.635C280.924 283.673 278.462 286.135 275.424 286.135H275.405Z" fill="url(#paint4_linear_202_11193)"/>
<path d="M49.9773 156.88L28.0364 155.784C23.7867 155.572 20.46 152.073 20.46 147.823C20.46 143.42 24.0367 139.862 28.421 139.862H35.5167C39.5357 139.862 43.17 142.227 44.8045 145.881L46.6506 150.015H56.9384L49.9581 156.88H49.9773Z" fill="url(#paint5_linear_202_11193)"/>
<path d="M284.77 197.01V239.736C284.77 242.448 284.135 245.14 282.962 247.582L280.52 252.716C277.501 259.004 271.155 262.984 264.175 262.984H231.254C229.004 262.984 226.793 262.561 224.716 261.753L219.639 259.792C214.64 257.831 209.313 256.85 203.929 256.85H96.6858C91.2823 256.85 85.975 257.85 80.9561 259.792L75.8795 261.753C73.7835 262.561 71.5721 262.984 69.3415 262.984H36.4013C29.4402 262.984 23.0752 258.984 20.0754 252.716L17.5948 247.582C16.4218 245.12 15.8257 242.448 15.8257 239.736V197.01C15.8257 192.376 17.5948 187.876 20.8061 184.511L27.5365 177.435C27.5365 177.435 27.5365 177.416 27.5557 177.377L27.9018 177.031L50.0158 153.764C50.0158 153.764 57.6307 131.901 73.8989 108.096C73.9181 108.115 84.8212 103.231 147.99 103.02H152.586C215.794 103.231 226.697 108.096 226.697 108.096C242.965 131.901 250.58 153.764 250.58 153.764L274.501 178.935H274.521L279.789 184.492C282.962 187.857 284.77 192.337 284.77 196.991V197.01Z" fill="url(#paint6_linear_202_11193)"/>
<path d="M284.77 197.01V239.736C284.77 242.447 284.135 245.139 282.962 247.581L280.52 252.715C277.501 259.003 271.155 262.984 264.175 262.984H231.254C229.004 262.984 226.793 262.561 224.716 261.753L219.639 259.792C214.64 257.83 209.313 256.85 203.929 256.85H96.6858C91.2823 256.85 85.975 257.849 80.9561 259.792L75.8795 261.753C73.7835 262.561 71.5721 262.984 69.3415 262.984H36.4013C29.4402 262.984 23.0752 258.984 20.0754 252.715L17.5948 247.581C16.4218 245.12 15.8257 242.447 15.8257 239.736V197.01C15.8257 192.375 17.5948 187.876 20.8061 184.511L27.5365 177.435C24.7674 182.28 70.2068 199.471 91.1093 200.913C112.608 202.374 188.603 201.701 209.505 200.913C230.389 200.105 269.213 187.145 274.501 178.954H274.521L279.789 184.511C282.962 187.876 284.77 192.356 284.77 197.01Z" fill="url(#paint7_linear_202_11193)"/>
<path d="M244.33 153.399C237.369 153.014 225.966 152.649 213.447 152.303C208.928 152.207 204.236 152.072 199.564 151.957C184.334 151.611 169.181 151.38 159.412 151.245C155.24 151.188 152.047 151.168 150.259 151.168C139.414 151.168 77.4369 152.188 56.2075 153.38C59.4381 141.977 70.4951 123.614 76.3793 113.403C80.4752 112.057 86.1287 111.057 92.8398 110.346C99.2817 109.634 106.666 109.192 114.492 108.942C120.569 108.73 126.876 108.596 133.241 108.557C138.952 108.48 144.683 108.48 150.278 108.48C153.144 108.48 156.066 108.48 159.009 108.5C161.105 108.5 163.201 108.5 165.297 108.519C182.699 108.654 200.044 109.173 212.524 110.923C217.139 111.576 221.101 112.384 224.158 113.403C226.158 116.903 228.793 121.364 231.542 126.19C233.735 130.094 235.946 134.189 237.984 138.208C239.542 141.343 240.984 144.381 242.138 147.227C243.042 149.419 243.811 151.495 244.33 153.38V153.399Z" fill="url(#paint8_linear_202_11193)"/>
<path d="M209.486 200.895C209.486 200.895 173.142 203.01 150.298 203.01C124.338 203.01 91.1091 200.895 91.1091 200.895C91.1091 200.895 71.4565 208.298 71.4565 216.72C71.4565 223.2 82.8212 240.679 88.0709 248.409C89.6669 250.774 92.3398 252.178 95.1858 252.178H205.39C208.255 252.178 210.909 250.774 212.505 248.409C217.755 240.679 229.119 223.181 229.119 216.72C229.119 208.298 209.467 200.895 209.467 200.895H209.486Z" fill="url(#paint9_linear_202_11193)"/>
<path d="M35.2281 254.389C39.7629 254.389 43.4391 250.713 43.4391 246.178C43.4391 241.644 39.7629 237.968 35.2281 237.968C30.6933 237.968 27.0171 241.644 27.0171 246.178C27.0171 250.713 30.6933 254.389 35.2281 254.389Z" fill="url(#paint10_linear_202_11193)"/>
<path d="M35.2281 251.524C38.1805 251.524 40.5739 249.131 40.5739 246.179C40.5739 243.226 38.1805 240.833 35.2281 240.833C32.2757 240.833 29.8823 243.226 29.8823 246.179C29.8823 249.131 32.2757 251.524 35.2281 251.524Z" fill="url(#paint11_linear_202_11193)"/>
<path d="M31.421 182.358C27.4597 181.858 22.9215 184.781 20.7871 190.415C19.5756 193.607 19.5371 198.068 19.8256 202.26C30.0365 212.47 53.8811 212.72 60.1499 212.086C66.3995 211.451 80.5717 203.529 82.0908 200.087C83.6292 196.645 37.5744 183.127 31.4402 182.358H31.421Z" fill="url(#paint12_linear_202_11193)"/>
<path style="mix-blend-mode:screen" d="M44.6127 196.453C44.6127 200.933 40.9783 204.548 36.517 204.548C32.0558 204.548 28.4214 200.914 28.4214 196.453C28.4214 191.992 32.0558 188.357 36.517 188.357C40.9783 188.357 44.6127 191.992 44.6127 196.453Z" fill="url(#paint13_radial_202_11193)"/>
<path style="mix-blend-mode:screen" d="M61.7266 200.895C61.7266 204.625 58.7075 207.663 54.9578 207.663C51.208 207.663 48.189 204.644 48.189 200.895C48.189 197.145 51.208 194.126 54.9578 194.126C58.7075 194.126 61.7266 197.145 61.7266 200.895Z" fill="url(#paint14_radial_202_11193)"/>
<path d="M269.156 182.358C273.117 181.858 277.655 184.781 279.79 190.415C281.001 193.607 281.04 198.068 280.751 202.26C270.54 212.47 246.696 212.72 240.427 212.086C234.177 211.451 220.005 203.529 218.486 200.087C216.948 196.645 263.002 183.127 269.137 182.358H269.156Z" fill="url(#paint15_linear_202_11193)"/>
<path style="mix-blend-mode:screen" d="M264.079 204.548C268.55 204.548 272.175 200.924 272.175 196.453C272.175 191.982 268.55 188.357 264.079 188.357C259.608 188.357 255.983 191.982 255.983 196.453C255.983 200.924 259.608 204.548 264.079 204.548Z" fill="url(#paint16_radial_202_11193)"/>
<path style="mix-blend-mode:screen" d="M238.85 200.895C238.85 204.625 241.869 207.663 245.619 207.663C249.369 207.663 252.388 204.644 252.388 200.895C252.388 197.145 249.369 194.126 245.619 194.126C241.869 194.126 238.85 197.145 238.85 200.895Z" fill="url(#paint17_radial_202_11193)"/>
<path d="M182.43 230.103H119.281C118.867 230.103 118.531 230.438 118.531 230.852V245.428C118.531 245.842 118.867 246.178 119.281 246.178H182.43C182.845 246.178 183.18 245.842 183.18 245.428V230.852C183.18 230.438 182.845 230.103 182.43 230.103Z" fill="url(#paint18_linear_202_11193)"/>
<path style="mix-blend-mode:screen" d="M238.85 147.361C229.639 148.63 213.717 150.092 195.853 148.438C171.047 146.092 145.452 125.46 136.799 111.115C142.145 111.038 147.529 111.038 152.759 111.038C155.451 111.038 158.182 111.038 160.951 111.057C162.913 111.057 164.893 111.057 166.835 111.077C183.142 111.192 199.391 111.692 211.102 113.326C215.428 113.942 219.14 114.692 222.005 115.653C223.889 118.922 226.351 123.114 228.928 127.633C230.985 131.305 233.062 135.132 234.966 138.901C236.427 141.843 237.773 144.689 238.85 147.361Z" fill="url(#paint19_linear_202_11193)"/>
<path style="mix-blend-mode:screen" d="M48.2083 158.994C38.7667 168.435 30.7672 174.281 33.9208 177.435C37.0745 180.588 82.1485 198.798 105.878 198.798C129.607 198.798 193.391 202.932 211.505 197.298C229.62 191.664 264.733 182.549 267.636 179.627C270.559 176.704 251.061 158.994 251.061 158.994H48.2083Z" fill="url(#paint20_linear_202_11193)"/>
<path style="mix-blend-mode:screen" d="M32.9975 141.228H26.7863C23.9401 141.228 21.6328 143.535 21.6328 146.381V148.746C21.6328 151.592 23.9401 153.899 26.7863 153.899H32.9975C35.8437 153.899 38.151 151.592 38.151 148.746V146.381C38.151 143.535 35.8437 141.228 32.9975 141.228Z" fill="url(#paint21_linear_202_11193)"/>
<path d="M150.298 221.584C153.898 221.584 156.816 218.666 156.816 215.065C156.816 211.465 153.898 208.547 150.298 208.547C146.697 208.547 143.779 211.465 143.779 215.065C143.779 218.666 146.697 221.584 150.298 221.584Z" fill="url(#paint22_linear_202_11193)"/>
<path style="mix-blend-mode:screen" d="M100.837 213.16C107.611 185.724 90.8617 157.992 63.4254 151.218C35.9892 144.444 8.2558 161.193 1.48125 188.628C-5.2933 216.063 11.4563 243.795 38.8926 250.57C66.3289 257.344 94.0622 240.595 100.837 213.16Z" fill="url(#paint23_radial_202_11193)"/>
<path style="mix-blend-mode:screen" d="M79.4502 207.39C83.0307 191.77 73.2702 176.205 57.6494 172.624C42.0287 169.044 26.463 178.804 22.8825 194.424C19.302 210.044 29.0625 225.609 44.6833 229.19C60.304 232.77 75.8697 223.01 79.4502 207.39Z" fill="url(#paint24_radial_202_11193)"/>
<path style="mix-blend-mode:screen" d="M296.634 212.537C303.053 185.016 285.947 157.502 258.425 151.083C230.904 144.664 203.389 161.769 196.969 189.29C190.55 216.81 207.656 244.324 235.178 250.743C262.699 257.163 290.214 240.057 296.634 212.537Z" fill="url(#paint25_radial_202_11193)"/>
<path style="mix-blend-mode:screen" d="M275.068 207.552C278.728 191.95 269.046 176.336 253.444 172.676C237.841 169.017 222.227 178.698 218.567 194.3C214.908 209.902 224.589 225.516 240.192 229.176C255.794 232.835 271.409 223.154 275.068 207.552Z" fill="url(#paint26_radial_202_11193)"/>
</g>
<g clip-path="url(#clip1_202_11193)">
<path d="M226.723 68.3115C226.723 68.3115 219.881 71.9906 218.563 76.2967C217.246 80.6028 216.914 130.572 214.771 135.008C212.629 139.445 210.594 164.926 213.893 177.2C213.893 177.2 211.353 188.101 212.154 190.242C212.955 192.378 219.477 195.01 221.821 194.844C224.165 194.678 225.364 181.092 222.789 177.2L226.723 68.3115Z" fill="#FFB27D"/>
<path d="M291.727 48.9878C287.49 45.3027 286.475 39.1453 286.262 35.5727C287.104 41.9135 292.825 47.509 292.825 47.509C286.006 39.4529 297.003 9.97868 279.787 2.52584C268.518 -2.35399 260.216 0.845998 255.825 3.63785C245.997 2.3129 234.206 16.4319 234.206 16.4319L257.73 47.509C257.73 47.509 259.409 43.6406 261.759 43.8181C260.477 48.7393 259.729 52.7615 262.198 55.2872C274.446 67.8328 269.444 73.9134 276.44 76.0664C284.998 78.6985 302.059 57.9726 291.721 48.9878H291.727Z" fill="#2B478B"/>
<path d="M231.388 66.8154C231.388 66.8154 223.845 67.2886 219.97 71.7248C216.089 76.161 215.579 112.331 215.579 112.331C215.579 112.331 216.647 116.383 221.151 116.051C225.661 115.726 231.393 66.8154 231.393 66.8154H231.388Z" fill="#2B478B"/>
<path d="M308.485 156.994C307.963 158.254 305.702 159.372 302.45 160.177C295.151 161.987 282.837 162.223 273.865 158.911C264.239 155.356 257.255 104.641 254.288 78.6509C253.249 69.5833 252.703 63.5205 252.703 63.5205C252.703 63.5205 258.234 54.8906 279.639 57.7711C301.038 60.6458 303.204 67.8384 305.127 80.7803C307.055 93.7222 310.177 152.919 308.497 157L308.485 156.994Z" fill="#EE9849"/>
<path d="M302.444 160.177C295.145 161.987 282.832 162.224 273.859 158.911C264.234 155.356 257.249 104.641 254.282 78.6512C256.816 69.7078 258.827 63.8224 258.827 63.8224C258.827 63.8224 285.698 60.587 290.932 68.6786C295.608 75.9126 301.299 145.555 302.45 160.183L302.444 160.177Z" fill="#E58638"/>
<path d="M282.98 163.3C275.621 146.844 272.096 142.195 271.978 137.02C271.877 132.926 273.906 128.508 277.841 117.678C278.766 115.128 279.407 112.502 279.799 109.846C282.909 88.9666 270.797 66.3951 263.266 64.8572C261.171 64.3071 257.623 56.7656 257.664 44.6104L256.721 44.7937L240.864 47.9227C240.864 47.9227 241.226 52.8972 241.238 57.5818C241.25 61.4857 241.012 65.1885 240.122 65.6498C238.983 65.7504 238.306 65.8214 238.306 65.8214C238.306 65.8214 225.085 84.1163 223.975 101.14C222.865 118.157 234.562 125.551 223.886 159.561C212.991 194.294 287.045 172.391 282.974 163.3H282.98Z" fill="#FFB27D"/>
<path d="M240.864 47.9229C240.864 47.9229 241.226 52.8974 241.238 57.5821C250.11 57.3336 254.798 49.2656 256.721 44.7939L240.864 47.9229Z" fill="#E8945B"/>
<path d="M258.353 43.0782C258.353 43.0782 262.999 35.7555 264.115 29.4975C264.91 25.0258 262.626 8.45801 245.926 10.8476C245.926 10.8476 241.072 11.3268 236.515 14.3966C232.889 16.8395 227.655 22.1097 233.506 36.5658L235.025 41.4516L258.353 43.0841V43.0782Z" fill="#2B478B"/>
<path d="M237.903 52.3595C237.903 52.3595 258.893 52.7025 258.905 39.6719C258.916 26.6413 261.64 17.9049 248.235 17.136C234.835 16.367 232.224 21.3356 231.156 25.6831C230.088 30.0305 232.438 51.9336 237.897 52.3595H237.903Z" fill="#FFB27D"/>
<path d="M238.675 16.8219C238.675 16.8219 244.425 32.1121 253.243 34.3716C262.062 36.6311 265.889 34.2769 265.889 34.2769C265.889 34.2769 268.987 19.9568 267.587 10.6112C267.587 10.6112 243.013 9.54653 238.681 16.8219H238.675Z" fill="#2B478B"/>
<path d="M240.105 18.0584C240.105 18.0584 235.814 21.4713 234.764 24.7896C233.72 28.1079 233.245 34.9397 231.251 34.709C231.251 34.709 226.919 24.3164 231.785 18.4369C236.948 12.2026 240.105 18.0584 240.105 18.0584Z" fill="#2B478B"/>
<path d="M264.394 321.182C259.112 342.121 251.16 358.174 251.16 358.174L244.235 357.695C244.235 357.695 247.629 341.6 247.434 319.851C247.297 304.649 245.41 286.68 239.381 269.521C218.67 210.566 222.017 167.653 222.017 167.653L260.964 172.196L262.78 172.409C262.94 190.237 263.403 214.446 263.806 233.374C264.162 250.398 264.477 263.15 264.477 263.15C271.966 279.221 269.248 301.911 264.382 321.182H264.394Z" fill="#272525"/>
<path d="M277.835 117.678C273.901 128.508 271.877 132.927 271.972 137.02C259.433 117.666 236.788 114.75 236.788 114.75L279.793 109.847C279.402 112.502 278.761 115.123 277.835 117.678Z" fill="#CB7D45"/>
<path d="M310.278 180.778L303.976 182.659C303.976 182.659 283.188 148.282 281.301 139.338C280.683 136.428 279.17 130.596 277.408 124.072C273.758 110.55 269.046 94.006 269.046 94.006L267.497 87.3103L262.204 64.4668C262.204 64.4668 272.334 65.496 278.262 67.9684C280.227 68.7847 281.722 69.7607 282.244 70.9023C286.6 80.4431 290.944 104.523 294 121.7C295.703 131.276 297.003 138.705 297.679 140.279C299.566 144.674 305.346 168.848 310.278 180.772V180.778Z" fill="#FFB27D"/>
<path d="M286.736 317.839C284.493 341.659 274.636 357.067 274.636 357.067L271.331 359.463C271.331 359.463 268.204 342.682 265.984 322.713C263.872 303.732 260.982 283.651 257.712 277.523C244.722 253.213 240.811 161.442 240.811 161.442L280.298 159.49C284.268 166.145 286.001 177.058 286.41 189.473C287.449 220.793 280.06 261.635 278.957 267.545C278.957 267.545 278.957 267.55 278.957 267.556C278.868 268.012 279.004 268.461 279.218 268.875C287.075 284.378 288.208 302.111 286.736 317.851V317.839Z" fill="#353535"/>
<path d="M239.304 18.5793C239.304 18.5793 243.398 34.5911 254.525 39.7193C254.525 39.7193 243.398 29.8828 242.455 19.3128C241.511 8.74276 239.304 18.5793 239.304 18.5793Z" fill="#2B478B"/>
<path d="M287.929 175.177C287.994 176.502 287.929 177.567 287.686 178.324C286.843 180.962 283.959 182.163 276.986 181.441C272.726 180.997 270.821 173.876 269.972 167.801C267.408 176.496 263.824 181.37 259.189 182.399C252.424 183.896 218.314 188.03 216.077 171.871C213.62 154.09 220.973 122.611 221.376 105.641C220.373 99.6256 220.029 94.3967 220.142 89.9132C220.427 77.823 223.987 71.0445 226.723 68.3177C227.5 67.7262 228.272 67.3536 231.387 66.8213C232.978 66.5492 235.179 66.2416 238.307 65.8275C238.307 65.8275 239.583 65.6856 239.553 65.7329C238.977 66.7621 231.251 78.4205 231.85 81.4193C232.479 84.5602 259.884 81.7328 261.771 80.0057C263.664 78.2785 266.649 65.0586 266.649 65.0586C266.649 65.0586 277.259 65.3189 282.007 68.7614C282.007 68.7614 283.378 70.4826 283.621 70.9499C288.683 80.5617 292.416 104.789 295.97 122.091C287.348 126.822 279.817 125.415 277.479 124.788C280.535 144.709 287.46 166.104 287.917 175.183L287.929 175.177Z" fill="#2B478B"/>
<path d="M238.307 65.8213C238.307 65.8213 238.295 65.845 238.265 65.8923C237.334 67.3592 222.777 90.5517 221.382 105.635C220.379 99.6193 220.035 94.3905 220.148 89.907C222.023 84.2109 226.563 71.5529 231.393 66.815C231.999 66.2176 238.313 65.8213 238.313 65.8213H238.307Z" fill="#E58638"/>
<path d="M286.736 317.84C284.493 341.659 274.636 357.068 274.636 357.068L271.272 360.126C271.272 360.126 268.204 342.683 265.99 322.714C268.322 322.885 278.612 323.258 286.742 317.84H286.736Z" fill="#FFB27D"/>
<path d="M264.394 321.181C259.112 342.12 251.16 358.174 251.16 358.174L244.235 357.694C244.235 357.694 247.629 341.6 247.433 319.851C249.783 321.028 254.632 322.228 264.388 321.181H264.394Z" fill="#FFB27D"/>
<path d="M255.148 363.959H250.727C249.244 363.728 248.152 363.302 246.638 363.101C244.336 362.799 243.274 363.74 243.06 363.959C243.03 363.988 243.019 364.006 243.019 364.006H224.248C223.78 363.332 224.231 361.776 224.676 360.629C224.978 359.848 225.625 359.262 226.432 359.026C228.42 358.452 232.349 357.937 235.939 354.696C237.963 352.874 245.701 348 245.701 348L245.742 347.988C245.914 347.988 246.722 348.237 250.241 351.2C252.062 352.726 255.166 349.041 255.166 349.041C255.166 349.041 255.748 349.52 256.181 350.419C256.531 351.123 256.786 352.093 256.584 353.294C256.305 354.98 257.207 358.115 257.931 360.232C258.371 361.516 258.738 362.427 258.738 362.427C258.738 362.427 258.952 363.485 255.148 363.959Z" fill="#272525"/>
<path d="M256.186 350.419C255.13 351.159 252.905 352.62 251.427 352.809C249.433 353.069 245.707 347.994 245.707 347.994L245.748 347.982C245.92 347.982 246.727 348.231 250.246 351.194C252.068 352.72 255.172 349.035 255.172 349.035C255.172 349.035 255.753 349.514 256.186 350.413V350.419Z" fill="#464545"/>
<path d="M255.148 363.959H250.727C249.244 363.728 248.152 363.302 246.638 363.101C244.336 362.799 243.274 363.74 243.06 363.959C243.03 363.988 243.019 364.006 243.019 364.006H224.248C223.78 363.332 224.231 361.776 224.676 360.629C225.245 360.126 225.406 362.823 225.72 363.255C226.035 363.687 241.031 363.415 241.897 362.782C242.763 362.155 245.363 361.055 248.982 361.918C252.134 362.669 256.78 360.741 257.931 360.232C258.371 361.516 258.738 362.427 258.738 362.427C258.738 362.427 258.952 363.486 255.148 363.959Z" fill="#464545"/>
<path d="M278.731 363.959H274.31C272.826 363.728 271.734 363.302 270.215 363.101C267.913 362.799 266.851 363.74 266.637 363.959C266.607 363.988 266.595 364.006 266.595 364.006H247.825C247.35 363.332 247.807 361.776 248.252 360.629C248.549 359.848 249.202 359.262 250.009 359.026C251.997 358.452 255.926 357.937 259.516 354.696C261.539 352.874 269.278 348 269.278 348L269.319 347.988C269.491 347.988 270.298 348.237 273.817 351.2C275.639 352.726 278.743 349.041 278.743 349.041C278.743 349.041 279.324 349.52 279.758 350.419C280.108 351.123 280.363 352.093 280.161 353.294C279.882 354.98 280.784 358.115 281.508 360.232C281.947 361.516 282.315 362.427 282.315 362.427C282.315 362.427 282.529 363.485 278.725 363.959H278.731Z" fill="#272525"/>
<path d="M279.764 350.419C278.707 351.159 276.482 352.62 275.004 352.809C273.01 353.069 269.284 347.994 269.284 347.994L269.325 347.982C269.497 347.982 270.304 348.231 273.823 351.194C275.645 352.72 278.749 349.035 278.749 349.035C278.749 349.035 279.33 349.514 279.764 350.413V350.419Z" fill="#464545"/>
<path d="M278.731 363.959H274.31C272.827 363.728 271.735 363.302 270.215 363.101C267.913 362.799 266.851 363.74 266.637 363.959C266.607 363.988 266.596 364.006 266.596 364.006H247.825C247.137 363.184 247.808 361.776 248.253 360.629C248.822 360.126 248.983 362.823 249.297 363.255C249.612 363.687 264.613 363.415 265.474 362.782C266.34 362.155 268.94 361.055 272.559 361.918C275.711 362.669 280.357 360.741 281.508 360.232C281.948 361.516 282.315 362.427 282.315 362.427C282.315 362.427 282.529 363.486 278.725 363.959H278.731Z" fill="#464545"/>
<path d="M287.929 175.177C283.241 173.616 277.23 169.469 270.008 160.165C250.893 135.541 268.382 106.599 270.732 106.061C273.076 105.523 277.491 124.782 277.491 124.782C280.547 144.703 287.472 166.098 287.929 175.177Z" fill="#233862"/>
<path d="M274.779 64.4668C274.779 64.4668 257.985 76.3441 256.543 104.026C255.101 131.708 280.108 137.339 280.108 137.339L278.488 128.591C278.488 128.591 258.228 121.28 263.522 99.229C268.809 77.1781 284.042 65.8214 284.042 65.8214L274.785 64.4609L274.779 64.4668Z" fill="#E58638"/>
<path d="M282.422 205.042L264.768 208.041C264.768 208.041 261 209.33 261.409 221.314C261.634 227.868 261.415 237.32 261.172 244.536C260.988 249.913 265.812 254.095 271.135 253.19L282.286 251.297C283.36 251.114 284.131 250.167 284.09 249.085L282.422 205.042Z" fill="#963333"/>
<path d="M373.84 228.37C373.329 226.105 372.422 223.147 370.902 219.314C370.6 218.545 370.345 217.706 370.137 216.83C369.098 212.542 368.992 207.242 368.006 203.125C368.006 203.125 366.92 189.598 349.272 193.732C345.207 194.685 340.347 195.72 335.131 196.755C331.012 194.306 321.41 189.491 312.485 191.567C304.777 193.354 300.047 199.21 297.673 203.113C293.252 203.711 289.448 204.137 286.647 204.32C274.168 205.136 273.004 215.115 274.583 220.982C274.838 221.929 275.052 223.378 275.236 225.152C276.209 234.433 272.453 246.358 277.538 252.095C278.719 253.432 348.405 240.005 368.066 236.71C372.006 236.048 374.706 232.262 373.828 228.376L373.84 228.37ZM313.203 194.62C319.191 193.23 325.808 195.554 330.241 197.701C320.734 199.511 310.515 201.256 301.91 202.516C304.26 199.387 307.969 195.838 313.209 194.62H313.203Z" fill="#B64C41"/>
<path d="M309.827 179.731C309.827 179.731 311.744 184.233 313.738 185.487C315.731 186.741 318.989 191.91 318.147 194.229C317.714 195.418 314.248 199.05 310.272 198.671C307.762 198.435 306.07 187.267 305.335 185.173C304.599 183.079 303.97 182.659 303.97 182.659L309.821 179.731H309.827Z" fill="#FFB27D"/>
</g>
<defs>
<linearGradient id="paint0_linear_202_11193" x1="261.637" y1="139.728" x2="262.04" y2="155.688" gradientUnits="userSpaceOnUse">
<stop stop-color="#AB53E3"/>
<stop offset="0.36" stop-color="#9046D5"/>
<stop offset="1" stop-color="#592BB8"/>
</linearGradient>
<linearGradient id="paint1_linear_202_11193" x1="270.847" y1="141.458" x2="270.847" y2="152.188" gradientUnits="userSpaceOnUse">
<stop stop-color="#2C3E63"/>
<stop offset="1"/>
</linearGradient>
<linearGradient id="paint2_linear_202_11193" x1="147.625" y1="268.329" x2="147.625" y2="255.773" gradientUnits="userSpaceOnUse">
<stop stop-color="#2C3E63"/>
<stop offset="1" stop-color="#13192E"/>
</linearGradient>
<linearGradient id="paint3_linear_202_11193" x1="38.1125" y1="285.347" x2="38.1125" y2="256.965" gradientUnits="userSpaceOnUse">
<stop stop-color="#2C3E63"/>
<stop offset="1" stop-color="#13192E"/>
</linearGradient>
<linearGradient id="paint4_linear_202_11193" x1="262.444" y1="285.346" x2="262.444" y2="256.965" gradientUnits="userSpaceOnUse">
<stop stop-color="#2C3E63"/>
<stop offset="1" stop-color="#13192E"/>
</linearGradient>
<linearGradient id="paint5_linear_202_11193" x1="38.9588" y1="139.728" x2="38.5358" y2="155.688" gradientUnits="userSpaceOnUse">
<stop stop-color="#AB53E3"/>
<stop offset="0.36" stop-color="#9046D5"/>
<stop offset="1" stop-color="#592BB8"/>
</linearGradient>
<linearGradient id="paint6_linear_202_11193" x1="150.298" y1="102.52" x2="150.298" y2="199.202" gradientUnits="userSpaceOnUse">
<stop stop-color="#AB53E3"/>
<stop offset="0.11" stop-color="#A650E0"/>
<stop offset="0.22" stop-color="#9A4ADA"/>
<stop offset="0.34" stop-color="#8540CF"/>
<stop offset="0.46" stop-color="#6832C0"/>
<stop offset="0.51" stop-color="#592BB8"/>
<stop offset="0.56" stop-color="#6933C0"/>
<stop offset="0.67" stop-color="#8540CF"/>
<stop offset="0.78" stop-color="#994AD9"/>
<stop offset="0.89" stop-color="#A550DF"/>
<stop offset="1" stop-color="#A952E2"/>
</linearGradient>
<linearGradient id="paint7_linear_202_11193" x1="17.3256" y1="220.219" x2="279.116" y2="220.219" gradientUnits="userSpaceOnUse">
<stop stop-color="#592BB8"/>
<stop offset="0.06" stop-color="#6B33C1"/>
<stop offset="0.18" stop-color="#8741D0"/>
<stop offset="0.29" stop-color="#9B4BDA"/>
<stop offset="0.4" stop-color="#A751E0"/>
<stop offset="0.52" stop-color="#AB53E3"/>
<stop offset="0.62" stop-color="#A650E0"/>
<stop offset="0.73" stop-color="#9A4ADA"/>
<stop offset="0.84" stop-color="#8540CF"/>
<stop offset="0.95" stop-color="#6832C0"/>
<stop offset="1" stop-color="#592BB8"/>
</linearGradient>
<linearGradient id="paint8_linear_202_11193" x1="210.909" y1="102.693" x2="84.8236" y2="179.304" gradientUnits="userSpaceOnUse">
<stop stop-color="#2C3E63"/>
<stop offset="1" stop-color="#13192E"/>
</linearGradient>
<linearGradient id="paint9_linear_202_11193" x1="150.644" y1="251.755" x2="150.202" y2="207.375" gradientUnits="userSpaceOnUse">
<stop stop-color="#2C3E63"/>
<stop offset="1" stop-color="#13192E"/>
</linearGradient>
<linearGradient id="paint10_linear_202_11193" x1="35.305" y1="254.082" x2="35.1704" y2="240.179" gradientUnits="userSpaceOnUse">
<stop stop-color="#2C3E63"/>
<stop offset="1" stop-color="#13192E"/>
</linearGradient>
<linearGradient id="paint11_linear_202_11193" x1="35.2858" y1="251.313" x2="35.1897" y2="242.275" gradientUnits="userSpaceOnUse">
<stop stop-color="#EBEFF7"/>
<stop offset="1" stop-color="#B3B6C2"/>
</linearGradient>
<linearGradient id="paint12_linear_202_11193" x1="51.0159" y1="211.778" x2="50.7467" y2="186.184" gradientUnits="userSpaceOnUse">
<stop stop-color="#EBEFF7"/>
<stop offset="1" stop-color="#B3B6C2"/>
</linearGradient>
<radialGradient id="paint13_radial_202_11193" cx="0" cy="0" r="1" gradientUnits="userSpaceOnUse" gradientTransform="translate(36.4978 196.453) scale(8.09563 8.09533)">
<stop stop-color="#EBEFF7"/>
<stop offset="1" stop-color="#B3B6C2"/>
</radialGradient>
<radialGradient id="paint14_radial_202_11193" cx="0" cy="0" r="1" gradientUnits="userSpaceOnUse" gradientTransform="translate(54.9578 200.895) scale(6.76879 6.76854)">
<stop stop-color="#EBEFF7"/>
<stop offset="1" stop-color="#B3B6C2"/>
</radialGradient>
<linearGradient id="paint15_linear_202_11193" x1="249.58" y1="211.778" x2="249.83" y2="186.184" gradientUnits="userSpaceOnUse">
<stop stop-color="#EBEFF7"/>
<stop offset="1" stop-color="#B3B6C2"/>
</linearGradient>
<radialGradient id="paint16_radial_202_11193" cx="0" cy="0" r="1" gradientUnits="userSpaceOnUse" gradientTransform="translate(264.079 103.962) rotate(180) scale(8.09563 8.09533)">
<stop stop-color="#EBEFF7"/>
<stop offset="1" stop-color="#B3B6C2"/>
</radialGradient>
<radialGradient id="paint17_radial_202_11193" cx="0" cy="0" r="1" gradientUnits="userSpaceOnUse" gradientTransform="translate(245.619 200.895) rotate(180) scale(6.7688 6.76854)">
<stop stop-color="#EBEFF7"/>
<stop offset="1" stop-color="#B3B6C2"/>
</radialGradient>
<linearGradient id="paint18_linear_202_11193" x1="187.969" y1="216.739" x2="90.4959" y2="272.947" gradientUnits="userSpaceOnUse">
<stop stop-color="#EBEFF7"/>
<stop offset="1" stop-color="#B3B6C2"/>
</linearGradient>
<linearGradient id="paint19_linear_202_11193" x1="187.642" y1="148.246" x2="187.949" y2="116.364" gradientUnits="userSpaceOnUse">
<stop stop-color="#2C3E63"/>
<stop offset="1" stop-color="#13192E"/>
</linearGradient>
<linearGradient id="paint20_linear_202_11193" x1="150.356" y1="199.298" x2="150.702" y2="163.667" gradientUnits="userSpaceOnUse">
<stop stop-color="#2C3E63"/>
<stop offset="1"/>
</linearGradient>
<linearGradient id="paint21_linear_202_11193" x1="29.8823" y1="103.001" x2="29.8823" y2="103.001" gradientUnits="userSpaceOnUse">
<stop stop-color="#2C3E63"/>
<stop offset="1"/>
</linearGradient>
<linearGradient id="paint22_linear_202_11193" x1="150.298" y1="208.508" x2="150.298" y2="216.392" gradientUnits="userSpaceOnUse">
<stop stop-color="#EBEFF7"/>
<stop offset="1" stop-color="#B3B6C2"/>
</linearGradient>
<radialGradient id="paint23_radial_202_11193" cx="0" cy="0" r="1" gradientUnits="userSpaceOnUse" gradientTransform="translate(51.1573 200.887) scale(51.1698 51.1679)">
<stop stop-color="#F7E3BC"/>
<stop offset="0.13" stop-color="#C6B697"/>
<stop offset="0.3" stop-color="#8A7F69"/>
<stop offset="0.47" stop-color="#595243"/>
<stop offset="0.63" stop-color="#322E26"/>
<stop offset="0.78" stop-color="#161411"/>
<stop offset="0.9" stop-color="#050504"/>
<stop offset="1"/>
</radialGradient>
<radialGradient id="paint24_radial_202_11193" cx="0" cy="0" r="1" gradientUnits="userSpaceOnUse" gradientTransform="translate(51.1747 103.953) scale(29.0174 29.0163)">
<stop stop-color="#F7E3BC"/>
<stop offset="0.13" stop-color="#C6B697"/>
<stop offset="0.3" stop-color="#8A7F69"/>
<stop offset="0.47" stop-color="#595243"/>
<stop offset="0.63" stop-color="#322E26"/>
<stop offset="0.78" stop-color="#161411"/>
<stop offset="0.9" stop-color="#050504"/>
<stop offset="1"/>
</radialGradient>
<radialGradient id="paint25_radial_202_11193" cx="0" cy="0" r="1" gradientUnits="userSpaceOnUse" gradientTransform="translate(246.803 103.967) scale(0.961476 0.961441)">
<stop stop-color="#F7E3BC"/>
<stop offset="0.13" stop-color="#C6B697"/>
<stop offset="0.3" stop-color="#8A7F69"/>
<stop offset="0.47" stop-color="#595243"/>
<stop offset="0.63" stop-color="#322E26"/>
<stop offset="0.78" stop-color="#161411"/>
<stop offset="0.9" stop-color="#050504"/>
<stop offset="1"/>
</radialGradient>
<radialGradient id="paint26_radial_202_11193" cx="0" cy="0" r="1" gradientUnits="userSpaceOnUse" gradientTransform="translate(246.832 103.969) scale(29.0174 29.0163)">
<stop stop-color="#F7E3BC"/>
<stop offset="0.13" stop-color="#C6B697"/>
<stop offset="0.3" stop-color="#8A7F69"/>
<stop offset="0.47" stop-color="#595243"/>
<stop offset="0.63" stop-color="#322E26"/>
<stop offset="0.78" stop-color="#161411"/>
<stop offset="0.9" stop-color="#050504"/>
<stop offset="1"/>
</radialGradient>
<clipPath id="clip0_202_11193">
<rect width="298" height="189" fill="white" transform="translate(0 103)"/>
</clipPath>
<clipPath id="clip1_202_11193">
<rect width="162" height="364" fill="white" transform="translate(212)"/>
</clipPath>
</defs>
</svg>
