<svg width="350" height="398" viewBox="0 0 350 398" fill="none" xmlns="http://www.w3.org/2000/svg">
<g style="mix-blend-mode:multiply">
<path d="M-185 350.948C-185 357.498 -68.6641 362.821 74.8218 362.821C218.308 362.821 334.644 357.498 334.644 350.948C334.644 344.397 218.308 339.075 74.8218 339.075C-68.6641 339.075 -185 344.397 -185 350.948Z" fill="#D8D8D8"/>
</g>
<path d="M281.787 353.469C296.52 353.469 308.463 336.798 308.463 316.234C308.463 295.67 296.52 279 281.787 279C267.055 279 255.111 295.67 255.111 316.234C255.111 336.798 267.055 353.469 281.787 353.469Z" fill="url(#paint0_linear_202_11191)"/>
<path d="M281.766 279H267.458V353.469H281.766V279Z" fill="url(#paint1_linear_202_11191)"/>
<path d="M267.458 353.469C278.692 353.469 287.799 336.798 287.799 316.234C287.799 295.67 278.692 279 267.458 279C256.224 279 247.117 295.67 247.117 316.234C247.117 336.798 256.224 353.469 267.458 353.469Z" fill="url(#paint2_linear_202_11191)"/>
<path d="M265.584 346.617C273.759 346.617 280.387 333.014 280.387 316.235C280.387 299.455 273.759 285.853 265.584 285.853C257.408 285.853 250.78 299.455 250.78 316.235C250.78 333.014 257.408 346.617 265.584 346.617Z" fill="#13151A"/>
<path d="M224.083 199.597L229.836 193.887L238.412 193.241C241.428 193.025 243.777 189.254 243.777 184.686C243.777 179.946 241.256 176.11 238.132 176.11H233.09C230.245 176.11 227.66 178.653 226.496 182.596L225.182 187.035L220.161 191.495C218.394 193.068 218.092 196.731 219.558 198.908C220.764 200.696 222.639 200.976 224.039 199.576L224.083 199.597Z" fill="url(#paint3_linear_202_11191)"/>
<path style="mix-blend-mode:screen" d="M238.8 177.575H235.654C233.286 177.575 231.366 179.495 231.366 181.863V186.927C231.366 189.295 233.286 191.215 235.654 191.215H238.8C241.168 191.215 243.088 189.295 243.088 186.927V181.863C243.088 179.495 241.168 177.575 238.8 177.575Z" fill="url(#paint4_linear_202_11191)"/>
<path d="M316.005 324.444C316.005 330.068 311.222 333.472 294.91 333.472C278.598 333.472 213.783 330.736 200.251 330.736C186.719 330.736 38.0403 328.947 38.0403 328.947C38.0403 328.947 27.6974 262.624 62.2598 257.15C96.8223 251.677 316.005 324.422 316.005 324.422V324.444Z" fill="#13192E"/>
<path d="M93.0943 359.675C112.837 359.675 128.842 339.811 128.842 315.308C128.842 290.805 112.837 270.941 93.0943 270.941C73.3514 270.941 57.3467 290.805 57.3467 315.308C57.3467 339.811 73.3514 359.675 93.0943 359.675Z" fill="url(#paint5_linear_202_11191)"/>
<path d="M93.1159 270.941H73.9385V359.675H93.1159V270.941Z" fill="url(#paint6_linear_202_11191)"/>
<path d="M73.9385 359.675C88.9925 359.675 101.196 339.811 101.196 315.308C101.196 290.805 88.9925 270.941 73.9385 270.941C58.8844 270.941 46.6807 290.805 46.6807 315.308C46.6807 339.811 58.8844 359.675 73.9385 359.675Z" fill="url(#paint7_linear_202_11191)"/>
<path d="M71.3961 351.509C82.3445 351.509 91.22 335.301 91.22 315.308C91.22 295.316 82.3445 279.108 71.3961 279.108C60.4477 279.108 51.5723 295.316 51.5723 315.308C51.5723 335.301 60.4477 351.509 71.3961 351.509Z" fill="#13151A"/>
<path d="M67.9482 315.976C67.9482 319.488 69.4997 322.311 71.3959 322.311C73.2921 322.311 74.8435 319.466 74.8435 315.976C74.8435 312.485 73.2921 309.641 71.3959 309.641C69.4997 309.641 67.9482 312.485 67.9482 315.976Z" fill="url(#paint8_linear_202_11191)"/>
<path d="M51.2056 315.976C51.2056 295.549 60.2771 278.914 71.4173 278.914C82.5574 278.914 91.629 295.549 91.629 315.976C91.629 336.403 82.5574 353.038 71.4173 353.038C60.2771 353.038 51.2056 336.403 51.2056 315.976ZM52.5631 315.976C52.5631 335.046 61.0098 350.539 71.4173 350.539C81.8248 350.539 90.2715 335.024 90.2715 315.976C90.2715 296.928 81.8248 281.414 71.4173 281.414C61.0098 281.414 52.5631 296.928 52.5631 315.976Z" fill="url(#paint9_linear_202_11191)"/>
<path d="M71.3957 318.41L75.2743 280.918C75.2743 280.918 69.6935 279.086 67 280.918L71.3957 318.41Z" fill="url(#paint10_linear_202_11191)"/>
<path d="M70.146 316.73L90.7887 311.904C90.7887 311.904 90.0129 301.604 88.2245 297.488L70.146 316.73Z" fill="url(#paint11_linear_202_11191)"/>
<path d="M70.6201 314.016L79.4978 348.535C79.4978 348.535 84.6046 344.01 86.1775 339.614L70.6201 314.016Z" fill="url(#paint12_linear_202_11191)"/>
<path d="M72.1929 314.016L57.0449 340.174C57.0449 340.174 60.9666 347.673 63.7247 349.095L72.1929 314.037V314.016Z" fill="url(#paint13_linear_202_11191)"/>
<path d="M72.6673 316.731L54.438 298.372C54.438 298.372 51.766 307.53 51.8738 312.787L72.6673 316.709V316.731Z" fill="url(#paint14_linear_202_11191)"/>
<path d="M317.664 333.473C326.973 324.164 334.644 312.378 334.644 312.378V252.669C334.644 252.669 324.064 227.2 235.33 195.438C235.33 195.438 204.237 165.379 152.393 144.198C85.8542 137.712 -9.08484 137.217 -24.9008 138.682C-49.379 140.944 -77.7573 151.072 -110.079 174.085C-142.4 197.098 -163.215 208.065 -166.512 225.433C-169.313 240.301 -164.874 295.937 -164.228 306.84C-164.12 308.714 -163.409 310.481 -162.203 311.925L-154.747 318.842C-154.747 318.842 -166.254 261.697 -132.833 261.697C-99.4127 261.697 -106.006 327.978 -106.006 327.978L48.7276 331.9C46.659 299.643 47.3485 264.585 75.382 262.516C107.79 260.146 113.349 299.664 113.349 333.451H205.724L214.343 324.832H309.778L317.621 333.451L317.664 333.473Z" fill="url(#paint15_linear_202_11191)"/>
<path d="M-23.8448 147.452C-9.88194 145.06 1.71071 145.685 9.27394 148.507C16.8372 151.33 41.3369 175.636 50.8394 186.776C60.3419 197.916 60.3419 201.191 60.3419 204.488C60.3419 207.785 46.2928 232.78 44.8276 249.587C43.3624 266.373 40.3888 305.741 42.6944 315.954H-45.9958C-45.9958 315.954 -49.2926 180.226 -23.8233 147.452H-23.8448Z" fill="url(#paint16_linear_202_11191)"/>
<path d="M306.158 245.3C310.726 245.3 321.134 261.547 321.134 261.547C321.134 261.547 311.502 311.667 303.464 317.14C295.427 319.876 225.699 318.045 225.699 318.045C225.699 318.045 203.009 273.398 199.368 263.917C201.199 257.173 216.994 247.39 219.084 245.3C236.602 244.567 260.714 246.571 269.29 246.571C277.866 246.571 297.582 246.571 306.158 245.3Z" fill="url(#paint17_linear_202_11191)" stroke="#C2C5D0" stroke-width="0.48" stroke-miterlimit="10"/>
<path d="M197.579 248.489C193.938 255.233 193.593 259.801 187.085 261.848C180.578 263.895 146.188 264.93 127.011 259.952C107.812 254.975 104.45 244.222 105.894 233.061C107.165 223.235 197.601 248.467 197.601 248.467L197.579 248.489Z" fill="url(#paint18_linear_202_11191)"/>
<path d="M200.272 244.201C195.166 252.238 192.429 257.711 188.141 259.263C183.853 260.814 147.524 259.715 134.552 256.979C121.58 254.242 106.992 243.468 105.894 234.698C106.799 222.007 131.277 225.433 138.581 225.433C145.886 225.433 192.623 240.71 200.294 244.179L200.272 244.201Z" fill="url(#paint19_linear_202_11191)"/>
<path d="M327.705 244.007L329.774 246.14C329.774 249.609 323.396 257.323 320.789 256.871C318.181 256.418 315.315 251.118 315.315 251.118L327.727 244.007H327.705Z" fill="url(#paint20_linear_202_11191)"/>
<path d="M310.64 243.468C310.64 245.299 318.483 256.332 321.133 256.332C323.784 256.332 327.985 248.295 327.985 244.265C327.985 240.236 315.66 230.927 312.277 231.703C308.894 232.479 310.64 240.968 310.64 243.446V243.468Z" fill="url(#paint21_linear_202_11191)"/>
<path d="M2.63715 148.723C21.1251 160.101 45.4524 185.872 52.0244 195.18C58.5964 204.489 4.10238 200.653 -17.8116 200.653C-39.7256 200.653 -35.8901 198.692 -35.8901 194.038C-35.8901 190.052 -27.7235 160.898 -18.652 148.982C-17.1652 147.021 0.525478 148.034 2.6156 148.702L2.63715 148.723Z" fill="url(#paint22_linear_202_11191)"/>
<path d="M18.8843 147.452C35.6699 155.748 63.531 194.641 70.3617 196.279C77.2138 197.916 223.997 193.822 223.997 193.822C209.517 176.541 166.098 154.304 154.829 148.745C143.559 143.185 36.1009 143.896 18.8843 147.452Z" fill="url(#paint23_linear_202_11191)"/>
<path style="mix-blend-mode:screen" d="M216.562 188.327C208.978 180.462 158.297 152.774 153.622 150.016C119.253 147.258 80.4673 147.839 80.4673 147.839C121.3 169.667 216.562 188.327 216.562 188.327Z" fill="url(#paint24_linear_202_11191)"/>
<path style="mix-blend-mode:screen" d="M161.099 243.554C161.53 248.338 158.535 252.518 154.398 252.906C150.26 253.294 146.576 249.695 146.145 244.912C145.714 240.128 148.709 235.948 152.846 235.56C156.983 235.172 160.668 238.77 161.099 243.554Z" fill="url(#paint25_radial_202_11191)"/>
<path style="mix-blend-mode:screen" d="M177.324 246.916C177.69 250.924 175.169 254.414 171.722 254.716C168.274 255.018 165.193 252.044 164.826 248.036C164.46 244.028 166.981 240.538 170.429 240.236C173.876 239.934 176.958 242.908 177.324 246.916Z" fill="url(#paint26_radial_202_11191)"/>
<path d="M34.4628 205.329L25.7145 199.619L12.6997 198.972C8.1316 198.757 4.55469 194.986 4.55469 190.418C4.55469 185.677 8.39016 181.842 13.1307 181.842H20.7801C25.0896 181.842 29.0113 184.384 30.7782 188.328L32.7606 192.766L40.3669 197.227C43.0388 198.8 43.4913 202.463 41.2719 204.639C39.4404 206.428 36.6176 206.708 34.4628 205.307V205.329Z" fill="url(#paint27_linear_202_11191)"/>
<path style="mix-blend-mode:screen" d="M10.6309 196.946H18.4096C21.1705 196.946 23.4087 194.708 23.4087 191.947V188.306C23.4087 185.545 21.1705 183.307 18.4096 183.307H10.6309C7.87002 183.307 5.63186 185.545 5.63186 188.306V191.947C5.63186 194.708 7.87002 196.946 10.6309 196.946Z" fill="url(#paint28_linear_202_11191)"/>
<path d="M162.004 293.459C162.004 293.459 161.357 300.096 162.004 304.685C162.65 309.275 164.008 315.696 171.054 317.334C178.1 318.971 194.648 318.045 194.648 318.045C194.648 318.045 190.016 304.815 185.685 299.966C181.353 295.118 161.982 293.459 161.982 293.459H162.004Z" fill="url(#paint29_linear_202_11191)" stroke="#C2C5D0" stroke-width="0.45" stroke-miterlimit="10"/>
<path d="M183.573 307.034C183.573 312.313 179.737 316.58 175.018 316.58C170.299 316.58 166.464 312.313 166.464 307.034C166.464 301.755 170.299 297.488 175.018 297.488C179.737 297.488 183.573 301.755 183.573 307.034Z" fill="url(#paint30_linear_202_11191)"/>
<path d="M175.018 313.24C178.089 313.24 180.578 310.461 180.578 307.034C180.578 303.606 178.089 300.828 175.018 300.828C171.948 300.828 169.459 303.606 169.459 307.034C169.459 310.461 171.948 313.24 175.018 313.24Z" fill="url(#paint31_linear_202_11191)"/>
<path d="M329.537 293.459C329.537 293.459 329.946 300.096 329.537 304.685C329.128 309.275 328.244 315.696 323.698 317.334C319.151 318.971 308.463 318.045 308.463 318.045C308.463 318.045 311.459 304.815 314.238 299.966C317.039 295.118 329.515 293.459 329.515 293.459H329.537Z" fill="url(#paint32_linear_202_11191)" stroke="#C2C5D0" stroke-width="0.36" stroke-miterlimit="10"/>
<path d="M313.958 307.034C313.958 310.46 315.574 313.24 317.556 313.24C319.539 313.24 321.155 310.46 321.155 307.034C321.155 303.608 319.539 300.828 317.556 300.828C315.574 300.828 313.958 303.608 313.958 307.034Z" fill="url(#paint33_linear_202_11191)"/>
<path d="M261.511 268.205C261.511 273.29 265.195 277.406 269.72 277.406C274.245 277.406 277.93 273.29 277.93 268.205C277.93 263.12 274.245 259.004 269.72 259.004C265.195 259.004 261.511 263.12 261.511 268.205Z" fill="url(#paint34_linear_202_11191)"/>
<path d="M276.163 268.205C276.163 264.218 273.276 260.986 269.721 260.986C266.165 260.986 263.278 264.218 263.278 268.205C263.278 272.191 266.165 275.423 269.721 275.423C273.276 275.423 276.163 272.191 276.163 268.205Z" fill="url(#paint35_linear_202_11191)"/>
<g clip-path="url(#clip0_202_11191)">
<path d="M187.72 108.833L186.629 109.809C186.063 110.317 185.223 110.293 184.738 109.761L165.323 88.3927C164.839 87.8603 164.911 87.0214 165.469 86.5213L166.56 85.5372C167.126 85.0371 167.966 85.0532 168.451 85.5856L187.866 106.962C188.35 107.494 188.286 108.333 187.72 108.833Z" fill="#282828"/>
<path d="M253.544 91.4661C250.949 89.3527 230.881 98.1693 231.139 101.243C231.398 104.316 217.14 134.073 217.14 134.073L192.505 114.399H192.497C192.279 113.697 189.943 106.042 189.83 104.671C189.708 103.235 185.546 100.726 183.614 101.089C181.682 101.46 185.271 103.888 185.505 104.332C186.144 105.542 183.671 106.002 183.671 106.002C183.671 106.002 176.55 102.09 176.405 99.7907C176.251 97.4918 174.78 92.668 173.244 93.6763C172.452 94.2006 172.46 97.6208 172.703 99.2422C172.242 97.403 171.596 95.3219 170.965 95.1121C169.809 94.733 169.244 96.2011 169.446 96.9271C169.656 97.645 171.515 105.469 172.08 106.349C172.63 107.212 184.131 116.488 185.788 118.497C185.788 118.497 217.658 154.982 219.929 155.933C221.917 156.772 229.022 144.197 235.722 135.856C242.43 127.507 261.667 98.0725 253.56 91.4661H253.544Z" fill="#F9C38A"/>
<path d="M324.491 366.654C324.491 366.654 328.872 370.929 328.969 372.502C329.066 374.075 329.357 390.893 327.571 392.466C325.785 394.039 320.531 395.152 322.22 396.919C323.497 398.258 333.309 397.968 339.816 397.613C341.715 397.508 344.1 382.335 344.851 380.1C345.942 376.858 348.602 369.566 347.607 367.307C347.122 366.21 344.811 363.943 341.546 361.838C338.11 359.62 334.829 354.675 334.829 354.675L324.491 366.654Z" fill="#F9C38A"/>
<path d="M279.125 376.616C279.125 376.616 283.045 387.699 283.045 387.731C283.336 389.49 284.483 393.83 284.483 395.427C284.483 401.428 257.472 390.337 263.525 387.675C264.075 387.433 265.789 385.513 265.974 383.472C266.249 380.326 263.695 376.382 263.695 376.382L279.117 376.616H279.125Z" fill="#F9C38A"/>
<path d="M236.748 170.179C236.748 170.179 234.776 190.055 234.776 190.345C234.776 222.498 228.415 285.296 229.619 291.337C232.57 306.083 264.35 381.287 264.35 381.287L281.525 379.23L259.145 289.184L267.381 252.941L279.036 181.303L236.748 170.171V170.179Z" fill="#282828"/>
<path d="M294.384 187.756L297.642 206.591L306.46 284.118L340.034 359.887C340.034 359.887 335.314 370.914 328.347 372.462L274.906 294.669L241.711 195.129L242.875 173.011L294.384 187.756Z" fill="#353535"/>
<path d="M341.327 361.733C341.327 361.733 331.232 390.192 327.28 391.563C326.229 391.926 321.194 392.854 320.248 395.08C319.965 395.75 320.248 397.992 320.248 397.992H341.287C341.287 397.992 343.946 385.457 344.997 379.947C344.997 379.947 350.566 366.485 349.943 365.267C349.321 364.04 341.319 361.733 341.319 361.733H341.327Z" fill="#353535"/>
<path d="M286.027 397.403L282.932 387.618C282.932 387.618 276.433 390.369 273.184 389.909C269.935 389.449 263.59 387.618 263.59 387.618C250.626 391.893 240.006 393.966 241.937 397.403H286.019H286.027Z" fill="#353535"/>
<path d="M226.556 162.871C226.459 162.83 226.104 162.556 225.902 162.387C226.67 153.199 226.532 144.294 223.655 141.285C223.719 141.14 224.35 139.801 225.013 138.413C228.351 140.994 229.935 147.867 229.313 159.015C229.272 159.781 229.054 160.37 228.876 161.322C227.906 162.387 227.033 163.072 226.564 162.879L226.556 162.871Z" fill="#F9C38A"/>
<path d="M307.3 53.771C302.653 49.7216 301.545 42.9699 301.311 39.0496C302.232 46.011 308.504 52.1496 308.504 52.1496C301.036 43.3087 313.087 10.9541 294.214 2.77469C281.864 -2.58146 272.764 0.927462 267.946 3.99272C257.172 2.53269 244.249 18.0365 244.249 18.0365L270.04 52.1496C270.04 52.1496 271.883 47.9066 274.461 48.1002C273.063 53.5048 272.238 57.9171 274.938 60.692C288.363 74.4615 282.883 81.1405 290.553 83.4959C299.937 86.3837 318.632 63.6363 307.308 53.771H307.3Z" fill="#2B478B"/>
<path d="M241.153 73.3401C241.153 73.3401 232.885 73.8563 228.634 78.7285C224.382 83.6007 223.816 123.296 223.816 123.296C223.816 123.296 224.98 127.74 229.927 127.377C234.865 127.014 241.153 73.332 241.153 73.332V73.3401Z" fill="#2B478B"/>
<path d="M325.672 172.325C325.106 173.704 322.625 174.93 319.052 175.817C311.05 177.802 297.553 178.068 287.716 174.43C277.161 170.534 269.506 114.859 266.257 86.3279C265.126 76.3739 264.52 69.719 264.52 69.719C264.52 69.719 270.581 60.249 294.045 63.403C317.5 66.557 319.876 74.4541 321.986 88.6591C324.096 102.864 327.523 167.848 325.68 172.317L325.672 172.325Z" fill="#EE9849"/>
<path d="M319.052 175.817C311.05 177.802 297.553 178.068 287.716 174.43C277.161 170.534 269.506 114.859 266.257 86.3279C269.038 76.511 271.244 70.0497 271.244 70.0497C271.244 70.0497 300.705 66.5005 306.435 75.3736C311.56 83.311 317.799 159.757 319.06 175.817H319.052Z" fill="#E58638"/>
<path d="M297.706 179.245C289.64 161.184 285.776 156.078 285.639 150.4C285.534 145.907 287.749 141.059 292.065 129.169C293.083 126.37 293.778 123.49 294.215 120.578C297.625 97.6609 284.346 72.8807 276.094 71.1948C273.798 70.5898 269.902 62.3136 269.951 48.9717L268.916 49.1733L251.539 52.6097C251.539 52.6097 251.935 58.0707 251.943 63.209C251.951 67.4923 251.693 71.5578 250.723 72.066C249.47 72.1789 248.734 72.2515 248.734 72.2515C248.734 72.2515 234.243 92.3371 233.022 111.019C231.802 129.701 244.629 137.816 232.925 175.148C220.979 213.27 302.16 189.232 297.706 179.253V179.245Z" fill="#FFB27D"/>
<path d="M251.539 52.6014C251.539 52.6014 251.935 58.0624 251.943 63.2007C261.666 62.9264 266.807 54.0695 268.916 49.165L251.539 52.6014Z" fill="#E8945B"/>
<path d="M270.719 47.2859C270.719 47.2859 275.819 39.2517 277.04 32.3791C277.912 27.4747 275.407 9.28475 257.1 11.9064C257.1 11.9064 251.782 12.4307 246.779 15.8025C242.802 18.4805 237.064 24.2642 243.481 40.139L245.146 45.5032L270.719 47.294V47.2859Z" fill="#2B478B"/>
<path d="M248.29 57.4739C248.29 57.4739 271.301 57.853 271.317 43.5512C271.333 29.2493 274.315 19.6583 259.622 18.8113C244.928 17.9643 242.074 23.4172 240.902 28.1926C239.731 32.968 242.309 57.0061 248.29 57.4739Z" fill="#FFB27D"/>
<path d="M249.147 18.4641C249.147 18.4641 255.451 35.2424 265.118 37.7269C274.785 40.2113 278.979 37.622 278.979 37.622C278.979 37.622 282.374 21.9085 280.838 11.6479C280.838 11.6479 253.899 10.4783 249.147 18.4641Z" fill="#2B478B"/>
<path d="M250.707 19.8272C250.707 19.8272 246.003 23.57 244.855 27.216C243.707 30.854 243.19 38.3559 241 38.1058C241 38.1058 236.255 26.6998 241.59 20.2466C247.248 13.4062 250.707 19.8272 250.707 19.8272Z" fill="#2B478B"/>
<path d="M292.073 129.169C287.757 141.059 285.542 145.907 285.647 150.4C271.899 129.161 247.069 125.958 247.069 125.958L294.214 120.578C293.786 123.49 293.083 126.37 292.065 129.169H292.073Z" fill="#CB7D45"/>
<path d="M249.834 20.392C249.834 20.392 254.32 37.9688 266.524 43.5911C266.524 43.5911 254.328 32.7901 253.285 21.1905C252.251 9.59094 249.834 20.3839 249.834 20.3839V20.392Z" fill="#2B478B"/>
<path d="M317.565 194.741C317.589 194.539 317.597 194.338 317.573 194.136C316.934 187.643 311.551 133.097 310.638 130.782C309.822 128.685 285.663 94.0957 285.663 94.0957L273.79 110.293L297.019 141.317C297.536 143.285 305.918 180.109 305.918 180.109C305.918 180.109 307.639 186.82 308.407 190.837C308.06 191.805 307.712 192.716 307.405 193.467C306.637 195.072 305.724 196.387 304.9 197.492C303.865 198.887 302.143 201.928 301.933 202.743C301.691 203.687 301.246 205.655 300.996 206.849C300.745 208.035 300.398 209.422 300.341 210.067C300.309 210.463 299.905 211.245 299.589 211.794C299.129 212.616 299.921 213.584 300.81 213.294C301.65 213.012 302.313 211.923 302.717 211.237C303.857 209.317 304.471 205.8 304.754 205.986C305.037 206.171 306.039 212.132 306.201 212.81C306.362 213.48 307.559 220.409 308.238 221.667C308.917 222.933 309.814 222.724 310.048 221.925C310.25 221.24 309.296 211.56 309.296 211.56C309.296 211.56 309.175 210.326 309.717 210.713C310.258 211.1 311.139 219.892 311.519 221.175C311.899 222.458 312.748 223.143 313.475 222.111C314.356 220.852 312.837 211.528 312.837 211.528C312.837 211.528 312.667 210.358 313.168 210.463C313.669 210.576 314.291 218.061 314.687 218.715C315.075 219.36 316.061 219.594 316.53 218.513C317.08 217.239 315.657 208.93 315.657 208.93C315.657 208.93 315.73 208.269 316.037 208.486C316.352 208.704 317.338 215.053 317.985 215.641C318.527 216.133 318.979 215.658 318.979 215.658C320.159 214.851 318.349 208.809 318.365 205.808C318.381 202.808 316.991 199.428 317.403 195.854C317.427 195.628 317.5 195.08 317.549 194.733L317.565 194.741Z" fill="#F9C38A"/>
<path d="M303.138 192.28C303.211 193.74 303.138 194.902 302.871 195.733C301.95 198.629 298.79 199.944 291.135 199.153C286.464 198.669 284.378 190.853 283.449 184.182C280.644 193.724 276.708 199.081 271.632 200.202C264.221 201.847 226.823 206.389 224.374 188.642C221.683 169.13 229.741 134.573 230.185 115.947C229.086 109.341 228.714 103.606 228.828 98.6851C229.143 85.4158 233.039 77.9785 236.045 74.9777C236.894 74.3244 237.743 73.921 241.161 73.3322C242.907 73.0337 245.324 72.6949 248.743 72.2432C248.743 72.2432 250.141 72.0819 250.109 72.1383C249.478 73.2677 241.008 86.0692 241.663 89.3603C242.358 92.8047 272.392 89.7071 274.469 87.8115C276.538 85.9159 279.82 71.4043 279.82 71.4043C279.82 71.4043 291.459 71.6947 296.656 75.4698C296.656 75.4698 298.159 77.3574 298.426 77.8736C303.978 88.4246 308.068 115.02 311.964 134.008C302.516 139.203 294.255 137.654 291.693 136.969C295.039 158.837 302.637 182.318 303.138 192.28Z" fill="#2B478B"/>
<path d="M248.734 72.251C248.734 72.251 248.718 72.2752 248.686 72.3316C247.668 73.9449 231.705 99.4027 230.177 115.955C229.078 109.349 228.706 103.613 228.819 98.6929C230.872 92.4414 235.851 78.5428 241.145 73.348C241.808 72.6946 248.726 72.259 248.726 72.259L248.734 72.251Z" fill="#E58638"/>
<path d="M303.138 192.281C297.997 190.571 291.41 186.013 283.489 175.809C262.531 148.778 281.711 117.012 284.281 116.415C286.852 115.827 291.693 136.969 291.693 136.969C295.039 158.837 302.637 182.319 303.138 192.281Z" fill="#233862"/>
<path d="M288.719 70.7588C288.719 70.7588 270.307 83.7942 268.731 114.181C267.146 144.567 294.562 150.746 294.562 150.746L292.784 141.147C292.784 141.147 270.573 133.121 276.377 108.921C282.172 84.7138 298.87 72.2511 298.87 72.2511L288.727 70.7588H288.719Z" fill="#E58638"/>
</g>
<defs>
<linearGradient id="paint0_linear_202_11191" x1="281.787" y1="353.62" x2="281.787" y2="243.339" gradientUnits="userSpaceOnUse">
<stop stop-color="#323845"/>
<stop offset="1" stop-color="#0B0C10"/>
</linearGradient>
<linearGradient id="paint1_linear_202_11191" x1="274.633" y1="-264.023" x2="274.633" y2="-264.023" gradientUnits="userSpaceOnUse">
<stop stop-color="#323845"/>
<stop offset="1" stop-color="#0B0C10"/>
</linearGradient>
<linearGradient id="paint2_linear_202_11191" x1="267.458" y1="-264.023" x2="267.458" y2="-264.023" gradientUnits="userSpaceOnUse">
<stop stop-color="#323845"/>
<stop offset="1" stop-color="#0B0C10"/>
</linearGradient>
<linearGradient id="paint3_linear_202_11191" x1="230.197" y1="175.873" x2="231.11" y2="198.801" gradientUnits="userSpaceOnUse">
<stop stop-color="#EBEBEB"/>
<stop offset="1" stop-color="#D1D1D1"/>
</linearGradient>
<linearGradient id="paint4_linear_202_11191" x1="237.166" y1="177.834" x2="237.166" y2="189.383" gradientUnits="userSpaceOnUse">
<stop stop-color="#2C3E63"/>
<stop offset="1"/>
</linearGradient>
<linearGradient id="paint5_linear_202_11191" x1="93.0943" y1="359.89" x2="93.0943" y2="228.471" gradientUnits="userSpaceOnUse">
<stop stop-color="#323845"/>
<stop offset="1" stop-color="#0B0C10"/>
</linearGradient>
<linearGradient id="paint6_linear_202_11191" x1="83.5272" y1="359.89" x2="83.5272" y2="228.471" gradientUnits="userSpaceOnUse">
<stop stop-color="#323845"/>
<stop offset="1" stop-color="#0B0C10"/>
</linearGradient>
<linearGradient id="paint7_linear_202_11191" x1="73.9385" y1="359.89" x2="73.9385" y2="228.471" gradientUnits="userSpaceOnUse">
<stop stop-color="#323845"/>
<stop offset="1" stop-color="#0B0C10"/>
</linearGradient>
<linearGradient id="paint8_linear_202_11191" x1="71.3959" y1="354.61" x2="71.3959" y2="281.219" gradientUnits="userSpaceOnUse">
<stop stop-color="#EBEFF7"/>
<stop offset="1" stop-color="#B3B6C2"/>
</linearGradient>
<linearGradient id="paint9_linear_202_11191" x1="71.3957" y1="354.611" x2="71.3957" y2="281.22" gradientUnits="userSpaceOnUse">
<stop stop-color="#EBEFF7"/>
<stop offset="1" stop-color="#B3B6C2"/>
</linearGradient>
<linearGradient id="paint10_linear_202_11191" x1="71.1587" y1="354.611" x2="71.1587" y2="281.219" gradientUnits="userSpaceOnUse">
<stop stop-color="#EBEFF7"/>
<stop offset="1" stop-color="#B3B6C2"/>
</linearGradient>
<linearGradient id="paint11_linear_202_11191" x1="80.4673" y1="354.611" x2="80.4673" y2="281.22" gradientUnits="userSpaceOnUse">
<stop stop-color="#EBEFF7"/>
<stop offset="1" stop-color="#B3B6C2"/>
</linearGradient>
<linearGradient id="paint12_linear_202_11191" x1="78.3988" y1="354.611" x2="78.3988" y2="281.22" gradientUnits="userSpaceOnUse">
<stop stop-color="#EBEFF7"/>
<stop offset="1" stop-color="#B3B6C2"/>
</linearGradient>
<linearGradient id="paint13_linear_202_11191" x1="64.6082" y1="354.611" x2="64.6082" y2="281.22" gradientUnits="userSpaceOnUse">
<stop stop-color="#EBEFF7"/>
<stop offset="1" stop-color="#B3B6C2"/>
</linearGradient>
<linearGradient id="paint14_linear_202_11191" x1="62.2813" y1="354.611" x2="62.2813" y2="281.22" gradientUnits="userSpaceOnUse">
<stop stop-color="#EBEFF7"/>
<stop offset="1" stop-color="#B3B6C2"/>
</linearGradient>
<linearGradient id="paint15_linear_202_11191" x1="83.6132" y1="143.315" x2="83.6132" y2="328.56" gradientUnits="userSpaceOnUse">
<stop stop-color="#EBEBEB"/>
<stop offset="1" stop-color="#D1D1D1"/>
</linearGradient>
<linearGradient id="paint16_linear_202_11191" x1="5.11524" y1="169.667" x2="10.0497" y2="388.247" gradientUnits="userSpaceOnUse">
<stop stop-color="#EBEBEB"/>
<stop offset="1" stop-color="#D1D1D1"/>
</linearGradient>
<linearGradient id="paint17_linear_202_11191" x1="321.134" y1="281.888" x2="199.368" y2="281.888" gradientUnits="userSpaceOnUse">
<stop stop-color="#323845"/>
<stop offset="1" stop-color="#0B0C10"/>
</linearGradient>
<linearGradient id="paint18_linear_202_11191" x1="150.411" y1="299.729" x2="151.769" y2="233.966" gradientUnits="userSpaceOnUse">
<stop stop-color="#323845"/>
<stop offset="1" stop-color="#0B0C10"/>
</linearGradient>
<linearGradient id="paint19_linear_202_11191" x1="150.713" y1="258.401" x2="154.462" y2="228.234" gradientUnits="userSpaceOnUse">
<stop stop-color="#EBEFF7"/>
<stop offset="0.7" stop-color="#B3B6C2"/>
<stop offset="1" stop-color="#7D7F87"/>
</linearGradient>
<linearGradient id="paint20_linear_202_11191" x1="322.06" y1="271.846" x2="322.62" y2="244.869" gradientUnits="userSpaceOnUse">
<stop stop-color="#323845"/>
<stop offset="1" stop-color="#0B0C10"/>
</linearGradient>
<linearGradient id="paint21_linear_202_11191" x1="324.861" y1="253.272" x2="313.182" y2="233.276" gradientUnits="userSpaceOnUse">
<stop stop-color="#EBEFF7"/>
<stop offset="1" stop-color="#B3B6C2"/>
</linearGradient>
<linearGradient id="paint22_linear_202_11191" x1="52.5846" y1="174.645" x2="-36.1271" y2="174.645" gradientUnits="userSpaceOnUse">
<stop stop-color="#323845"/>
<stop offset="1" stop-color="#0B0C10"/>
</linearGradient>
<linearGradient id="paint23_linear_202_11191" x1="138.603" y1="151.783" x2="82.6654" y2="213.215" gradientUnits="userSpaceOnUse">
<stop stop-color="#323845"/>
<stop offset="1" stop-color="#0B0C10"/>
</linearGradient>
<linearGradient id="paint24_linear_202_11191" x1="84.4536" y1="48.1383" x2="162.65" y2="194.576" gradientUnits="userSpaceOnUse">
<stop stop-color="#363D4A"/>
<stop offset="1" stop-color="#0F1015"/>
</linearGradient>
<radialGradient id="paint25_radial_202_11191" cx="0" cy="0" r="1" gradientUnits="userSpaceOnUse" gradientTransform="translate(155.613 244.052) rotate(-5.10999) scale(7.48653 8.70525)">
<stop stop-color="#EBEFF7"/>
<stop offset="1" stop-color="#B3B6C2"/>
</radialGradient>
<radialGradient id="paint26_radial_202_11191" cx="0" cy="0" r="1" gradientUnits="userSpaceOnUse" gradientTransform="translate(173.04 247.319) rotate(-5.11001) scale(6.24493 7.26157)">
<stop stop-color="#EBEFF7"/>
<stop offset="1" stop-color="#B3B6C2"/>
</radialGradient>
<linearGradient id="paint27_linear_202_11191" x1="23.9907" y1="181.605" x2="23.3873" y2="204.553" gradientUnits="userSpaceOnUse">
<stop stop-color="#EBEBEB"/>
<stop offset="1" stop-color="#D1D1D1"/>
</linearGradient>
<linearGradient id="paint28_linear_202_11191" x1="14.5311" y1="183.565" x2="14.5311" y2="195.115" gradientUnits="userSpaceOnUse">
<stop stop-color="#2C3E63"/>
<stop offset="1"/>
</linearGradient>
<linearGradient id="paint29_linear_202_11191" x1="175.191" y1="318.799" x2="180.47" y2="296.95" gradientUnits="userSpaceOnUse">
<stop stop-color="#323845"/>
<stop offset="1" stop-color="#0B0C10"/>
</linearGradient>
<linearGradient id="paint30_linear_202_11191" x1="174.372" y1="338.472" x2="175.191" y2="298.889" gradientUnits="userSpaceOnUse">
<stop stop-color="#323845"/>
<stop offset="1" stop-color="#0B0C10"/>
</linearGradient>
<linearGradient id="paint31_linear_202_11191" x1="175.061" y1="313.003" x2="174.954" y2="302.487" gradientUnits="userSpaceOnUse">
<stop stop-color="#EBEFF7"/>
<stop offset="1" stop-color="#B3B6C2"/>
</linearGradient>
<linearGradient id="paint32_linear_202_11191" x1="323.299" y1="318.799" x2="315.747" y2="298.482" gradientUnits="userSpaceOnUse">
<stop stop-color="#323845"/>
<stop offset="1" stop-color="#0B0C10"/>
</linearGradient>
<linearGradient id="paint33_linear_202_11191" x1="312.469" y1="313.003" x2="312.635" y2="302.489" gradientUnits="userSpaceOnUse">
<stop stop-color="#EBEFF7"/>
<stop offset="1" stop-color="#B3B6C2"/>
</linearGradient>
<linearGradient id="paint34_linear_202_11191" x1="269.72" y1="258.939" x2="269.72" y2="270.058" gradientUnits="userSpaceOnUse">
<stop stop-color="#EBEFF7"/>
<stop offset="1" stop-color="#B3B6C2"/>
</linearGradient>
<linearGradient id="paint35_linear_202_11191" x1="269.721" y1="275.466" x2="269.721" y2="266.74" gradientUnits="userSpaceOnUse">
<stop stop-color="#EBEFF7"/>
<stop offset="1" stop-color="#B3B6C2"/>
</linearGradient>
<clipPath id="clip0_202_11191">
<rect width="185" height="398" fill="white" transform="translate(165)"/>
</clipPath>
</defs>
</svg>
