<svg width="226" height="329" viewBox="0 0 226 329" fill="none" xmlns="http://www.w3.org/2000/svg">
<path d="M166.86 1.1342C166.86 1.1342 166.831 1.12703 166.82 1.11985C166.437 0.983456 166.05 0.857832 165.656 0.746565C165.524 0.707083 165.387 0.667601 165.255 0.631709C165.112 0.595816 164.968 0.559924 164.825 0.52762C164.678 0.491728 164.535 0.455835 164.388 0.427121C164.248 0.398407 164.109 0.369693 163.969 0.344568C163.811 0.315854 163.654 0.28714 163.496 0.258426C163.364 0.236891 163.227 0.215355 163.091 0.197409C162.919 0.172284 162.747 0.150749 162.576 0.132802C162.45 0.118445 162.325 0.104088 162.199 0.0897313C162.002 0.0717851 161.805 0.0574281 161.608 0.043071C161.504 0.0358925 161.401 0.028714 161.297 0.0215355C160.992 0.00717851 160.688 0 160.38 0H19.0566C18.727 0 18.4011 0.00717851 18.0751 0.0251248C17.4267 0.0574281 16.7855 0.125624 16.1551 0.222534C15.8399 0.269194 15.5282 0.326622 15.2166 0.391229C7.15338 2.04229 0.945665 8.8188 0.0967157 17.1925C0.0322386 17.835 0 18.4882 0 19.1523V309.53C0 317.821 5.24056 324.881 12.5695 327.548C12.6017 327.559 12.6339 327.57 12.6662 327.58C13.0315 327.71 13.4005 327.828 13.773 327.936C13.9092 327.975 14.0417 328.015 14.1778 328.051C14.3211 328.09 14.4644 328.122 14.6077 328.158C14.7545 328.194 14.8978 328.23 15.0482 328.259C15.1879 328.288 15.3276 328.316 15.4673 328.341C15.625 328.37 15.7826 328.399 15.9402 328.427C16.0727 328.449 16.2088 328.471 16.345 328.488C16.5169 328.514 16.6888 328.535 16.8608 328.553C16.9861 328.567 17.1115 328.582 17.2369 328.596C17.4339 328.614 17.6309 328.628 17.8279 328.643C17.9318 328.65 18.0357 328.657 18.1396 328.664C18.444 328.679 18.7485 328.686 19.0566 328.686H160.373C161.032 328.686 161.68 328.654 162.321 328.589C171.291 327.674 178.419 320.506 179.329 311.486C179.393 310.844 179.426 310.19 179.426 309.526V19.1523C179.426 10.8611 174.185 3.80102 166.856 1.1342H166.86Z" fill="#353535"/>
<path d="M170.739 26.1045H9.23828V302.578H170.739V26.1045Z" fill="#E6E6E6"/>
<path d="M170.739 142.569L124.126 138.735L122.797 111.36L111.341 110.883V92.2293L170.736 117.756V112.519L151.034 104.052L147.305 26.1045H142.495L146.123 101.942L111.341 86.9926V86.4614H110.102L102.189 83.0588L102.153 26.1045H97.3499L97.3857 80.9914L49.1998 60.2814V26.1045H39.5927V56.1537L9.23828 43.1068V48.3435L39.5891 61.3869V91.8417L9.23828 77.6498V82.9619L39.5891 97.1574V115.14L12.1863 149.995L9.23828 150.052V154.865L33.3635 154.388V187.169L58.5525 201.192L32.1277 212.832L9.24186 196.468V202.384L30.856 217.839L30.8739 217.814L25.6692 302.578H35.2978L38.5324 249.909L79.1387 264.783L74.4891 302.578H79.3285L83.7667 266.477L123.399 280.992L116.46 302.578H121.507L127.912 282.646L170.743 298.335V293.21L129.388 278.063L141.098 241.632L126.114 233.291C131.319 226.973 142.566 213.313 153.785 199.58C160.931 190.833 166.462 184.032 170.746 178.723V171.057C165.434 177.671 158.574 186.113 151.206 195.14L126.092 179.057L124.369 143.581L170.746 147.393V142.561L170.739 142.569ZM113.627 120.617L116.27 175.059L87.3273 149.869V119.526L113.627 120.62V120.617ZM49.1998 65.5217L106.541 90.1655V110.685L49.1998 108.302V65.5217ZM18.4012 149.873L43.6906 117.709L82.5273 119.325V148.606L18.4048 149.876L18.4012 149.873ZM38.167 184.34V154.298L84.0497 153.39L111.95 177.675L64.0761 198.766L38.167 184.344V184.34ZM135.309 243.922L124.867 276.408L38.8333 244.898L40.3807 219.72L69.1017 207.067L135.313 243.922H135.309ZM148.136 198.895C139.321 209.677 129.993 221.026 121.837 230.914L74.6217 204.634L123.485 183.109L148.133 198.895H148.136Z" fill="#FFFBF3"/>
<path d="M125.87 281.071L31.6299 247.325L33.2812 216.569L115.944 179.955L83.2474 151.872V116.378L42.6805 115.154V82.8115H46.1122V111.82L86.679 113.04V150.289L122.313 180.895L36.5946 218.859L35.194 244.949L127.027 277.834L125.87 281.071Z" fill="#748828"/>
<path d="M35.5197 71.34L44.3136 88.8304L53.5446 71.5697C56.2777 65.2382 51.8897 58.0131 45.0121 57.7259C44.9118 57.7223 44.808 57.7188 44.7041 57.7188C44.6002 57.7188 44.4999 57.7188 44.396 57.7188C37.5113 57.83 32.9442 64.9439 35.5161 71.34H35.5197ZM40.0187 67.7112C40.051 65.188 42.1178 63.1672 44.636 63.1995C47.1542 63.2318 49.1709 65.3028 49.1387 67.8261C49.1064 70.3493 47.0396 72.3701 44.5214 72.3378C42.0032 72.3055 39.9865 70.2345 40.0187 67.7112Z" fill="#DC4437"/>
<path d="M117.331 263.584L126.125 281.075L135.356 263.814C138.089 257.482 133.701 250.257 126.823 249.97C126.723 249.966 126.619 249.963 126.515 249.963C126.411 249.963 126.311 249.963 126.207 249.963C119.322 250.074 114.755 257.184 117.327 263.584H117.331ZM121.83 259.955C121.862 257.432 123.929 255.411 126.447 255.444C128.965 255.476 130.982 257.547 130.95 260.07C130.917 262.593 128.851 264.614 126.332 264.582C123.814 264.55 121.798 262.479 121.83 259.955Z" fill="#184655"/>
<path d="M124.104 13.9512H55.5827C55.4858 13.9512 55.4072 14.0299 55.4072 14.127V17.2389C55.4072 17.3361 55.4858 17.4148 55.5827 17.4148H124.104C124.201 17.4148 124.28 17.3361 124.28 17.2389V14.127C124.28 14.0299 124.201 13.9512 124.104 13.9512Z" fill="white"/>
<path d="M170.191 290.978H9.23828V302.578H170.191V290.978Z" fill="#FFD800"/>
<path d="M170.739 26.1045H9.23828V40.7774H170.739V26.1045Z" fill="#FFD800"/>
<path d="M136.452 228.367L178.233 311L222.091 229.441C235.073 199.525 214.232 165.392 181.547 164.04C181.061 164.02 180.575 164.007 180.09 164C179.604 164 179.118 164 178.632 164C145.927 164.53 124.228 198.133 136.452 228.36V228.367ZM157.825 211.221C157.978 199.3 167.799 189.759 179.764 189.905C191.728 190.057 201.303 199.843 201.157 211.765C201.004 223.686 191.182 233.227 179.218 233.081C167.254 232.928 157.678 223.142 157.825 211.221Z" fill="#2AE7D0"/>
</svg>
