<svg width="365" height="225" viewBox="0 0 365 225" fill="none" xmlns="http://www.w3.org/2000/svg">
<path fill-rule="evenodd" clip-rule="evenodd" d="M176.108 22.6523C260.908 -5.97493 343.985 12.8688 361.666 64.7401C379.347 116.612 324.937 181.869 240.138 210.496C155.338 239.123 72.2614 220.279 54.5797 168.408C36.8987 116.537 91.3088 51.2788 176.108 22.6523Z" fill="#B9E5D1"/>
<path fill-rule="evenodd" clip-rule="evenodd" d="M342.253 46.5886C352.614 43.0902 362.641 45.0266 364.648 50.9138C366.654 56.8009 359.882 64.4091 349.519 67.9069C339.157 71.4053 329.13 69.4689 327.124 63.5817C325.117 57.6946 331.891 50.0864 342.253 46.5886Z" fill="#008C7B"/>
<path fill-rule="evenodd" clip-rule="evenodd" d="M327.063 33.7343C332.33 35.5324 335.565 39.9953 334.287 43.7028C333.01 47.4097 327.704 48.9577 322.436 47.1589C317.168 45.3614 313.933 40.8985 315.212 37.191C316.489 33.4842 321.796 31.9361 327.063 33.7343Z" fill="#008C7B"/>
<path fill-rule="evenodd" clip-rule="evenodd" d="M343.558 33.649C346.384 32.6947 349.245 33.5941 349.948 35.6569C350.652 37.7203 348.931 40.1665 346.105 41.1202C343.278 42.0746 340.418 41.1752 339.714 39.1117C339.011 37.0489 340.732 34.6027 343.558 33.649Z" fill="#008C7B"/>
<path fill-rule="evenodd" clip-rule="evenodd" d="M39.989 108.592C35.8745 116.435 28.8926 120.898 24.3928 118.561C19.8937 116.224 19.5815 107.971 23.696 100.128C27.8098 92.2854 34.7924 87.8219 39.2908 90.1594C43.7906 92.4963 44.1022 100.749 39.989 108.592Z" fill="#E1E2DF"/>
<path fill-rule="evenodd" clip-rule="evenodd" d="M22.8961 77.2868C27.0588 78.9132 29.4965 82.6068 28.3408 85.5368C27.1851 88.4667 22.8732 89.5228 18.7105 87.8964C14.5471 86.27 12.1094 82.5765 13.2651 79.6465C14.4215 76.7165 18.7327 75.6598 22.8961 77.2868Z" fill="#E2F5ED"/>
<path fill-rule="evenodd" clip-rule="evenodd" d="M32.2162 68.7868C33.3401 66.453 35.6459 65.2264 37.3658 66.0475C39.0864 66.8673 39.5693 69.4247 38.4454 71.7584C37.3214 74.0915 35.0157 75.3181 33.2957 74.4977C31.5758 73.6772 31.0922 71.1199 32.2162 68.7868Z" fill="#E1E2DF"/>
<path fill-rule="evenodd" clip-rule="evenodd" d="M141.337 15.171C213.263 39.2532 285.614 -13.0722 308.224 70.9051C321.433 119.963 221.325 136.903 162.697 144.434C104.07 151.964 52.0771 125.757 46.5683 85.8968C41.0601 46.0372 69.411 -8.91122 141.337 15.171Z" fill="#E2F5ED"/>
<path fill-rule="evenodd" clip-rule="evenodd" d="M136.16 102.897L138.972 131.745L154.008 136.565L154.958 103.657L136.16 102.897ZM253.028 90.4039L282.725 96.555L282.849 85.1736L254.372 76.4506L253.028 90.4039ZM202.874 53.1838L198.634 86.8448L199.054 110.254L198.938 111.252L215.622 113.958L221.81 57.0921L202.874 53.1838ZM205.338 33.6288L203.519 48.0729L222.369 51.9635L224.054 36.478L205.338 33.6288ZM166.763 30.4317L160.315 69.0451L160.138 75.2152L194.633 83.5725L200.986 33.1387L166.763 30.4317ZM129.586 22.0655L133.698 77.6279H133.696L135.655 97.7228L155.107 98.5085L155.977 68.3762L162.429 29.7388L129.586 22.0655ZM92.9824 56.739L86.5558 73.2938L129.868 83.4234L129.353 78.1426L129.345 78.0719L128.437 65.8062L92.9824 56.739ZM82.1627 72.2662L88.6235 55.6242L62.8316 49.0285L58.4626 66.7233L82.1627 72.2662ZM132.723 112.706L107.655 112.668L104.016 130.063L134.517 131.117L132.723 112.706ZM79.7529 106.38L106.025 107.516L132.221 107.556L130.393 88.8103L84.6816 78.1193L77.0549 97.7658L81.1549 101.787L79.7529 106.38ZM69.3946 22.447L64.0584 44.0584L128.038 60.42L124.364 10.7706C125.827 11.0334 127.31 11.3296 128.816 11.665L129.189 16.7096L163.275 24.6721L163.976 20.4714C165.429 20.6823 166.881 20.8775 168.33 21.0461L167.615 25.3271L201.632 28.0183L202.384 22.0434C203.869 21.9942 205.348 21.9379 206.819 21.876L205.979 28.5337L224.609 31.3709L225.742 20.9571C227.224 20.8889 228.692 20.8301 230.151 20.7758L222.621 89.9737L241.13 92.3643L247.744 20.7082C249.215 20.7707 250.67 20.8548 252.107 20.9659L245.835 88.9133L248.723 89.512L250.605 69.9748L282.906 79.8694L283.439 30.6527C284.922 31.6665 286.361 32.7787 287.757 33.992L287.411 65.9054L305.981 63.4895C306.521 65.0862 307.033 66.7625 307.53 68.4766L287.354 71.1016L286.915 111.682C285.505 112.556 284.044 113.409 282.533 114.24L282.668 101.788L245.36 94.0589L244.9 99.0403L238.406 122.703L242.04 129.704C240.552 130.114 239.055 130.515 237.55 130.908L233.638 123.37L240.615 97.9451L240.656 97.4917L222.064 95.0903L219.379 119.77L198.347 116.359L195.649 139.629C194.147 139.881 192.653 140.123 191.167 140.362L194.694 109.927L194.313 88.7541L159.987 80.4379L158.326 137.949L164.5 139.929L178.788 142.246C173.182 143.055 167.781 143.781 162.697 144.434C162.496 144.46 162.296 144.481 162.094 144.506L139.51 137.266L140.332 145.701C138.856 145.678 137.386 145.638 135.927 145.572L135.021 136.288L102.945 135.178L101.972 139.831C100.551 139.394 99.1513 138.932 97.7696 138.45L98.4861 135.024L88.3424 134.673C84.6804 133.004 81.2024 131.161 77.9238 129.16L99.5568 129.908L103.188 112.549L78.1999 111.468L73.6462 126.384C72.3477 125.484 71.0904 124.554 69.8693 123.599L76.0185 103.456L71.699 99.2203L80.2898 77.0923L57.2339 71.7003L50.3973 99.3902C49.3165 96.9207 48.428 94.3779 47.7432 91.7675L63.4643 28.0922C65.2921 26.0863 67.2685 24.1978 69.3946 22.447Z" fill="white"/>
<path fill-rule="evenodd" clip-rule="evenodd" d="M75.5565 198.091C36.999 199.185 12.2847 200.869 12.2847 202.758C12.2847 204.874 43.2542 206.732 89.9531 207.792C84.6962 204.921 79.8766 201.683 75.5565 198.091Z" fill="#E1E2DF"/>
<path fill-rule="evenodd" clip-rule="evenodd" d="M180.14 196.792C140.59 196.792 104.24 197.278 75.5522 198.092C79.873 201.683 84.692 204.921 89.9482 207.792C115.999 208.384 146.943 208.726 180.14 208.726C203.724 208.726 226.167 208.553 246.53 208.241C255.114 205.1 263.365 201.585 271.235 197.746C244.998 197.142 213.723 196.792 180.14 196.792Z" fill="#008C7B"/>
<path fill-rule="evenodd" clip-rule="evenodd" d="M98.5896 116.778C83.2276 121.797 57.1958 124.481 38.3165 130.198C19.4373 135.917 12.2847 146.537 12.2847 149.57C12.2847 152.604 12.2847 163.224 12.2847 168.125C12.2847 173.026 18.5557 177.871 27.9976 183.296C37.4394 188.721 45.8214 187.614 50.6289 187.614H52.6928C51.5149 184.363 50.8707 180.858 50.8707 177.204C50.8707 160.263 64.6714 146.53 81.6949 146.53C98.7184 146.53 112.518 160.263 112.518 177.204C112.518 180.858 111.875 184.363 110.697 187.614H273.749C272.571 184.363 271.928 180.858 271.928 177.204C271.928 160.263 285.728 146.53 302.751 146.53C312.921 146.53 321.94 151.433 327.554 158.992C333.317 153.401 338.494 147.618 343.029 141.71C342.84 140.332 342.729 139.015 342.729 137.784C342.729 125.998 319.863 102.542 316.228 98.8073C312.593 95.0732 308.02 90.6388 308.489 88.888C308.958 87.1379 313.977 88.065 314.352 86.6705C314.727 85.2765 303.212 82.9365 290.43 80.8364C277.649 78.7357 238.717 74.768 212.802 76.1683C186.888 77.5685 172.347 81.1863 151.709 90.7556C131.071 100.324 118.758 108.61 98.5896 116.778Z" fill="#008C7B"/>
<path fill-rule="evenodd" clip-rule="evenodd" d="M192.314 163.737C159.539 163.737 132.97 164.476 132.97 165.386C132.97 166.297 159.539 167.035 192.314 167.035C225.089 167.035 251.658 166.297 251.658 165.386C251.658 164.476 225.089 163.737 192.314 163.737Z" fill="#008C7B"/>
<path fill-rule="evenodd" clip-rule="evenodd" d="M342.735 138.171C342.732 138.041 342.729 137.911 342.729 137.784C342.729 137.609 342.723 137.431 342.714 137.25C339.163 138.019 334.587 139.225 329.869 142.013C328.689 142.71 327.46 143.589 326.145 144.531C323.512 146.416 320.526 148.553 316.868 149.929C317.223 150.112 317.573 150.302 317.921 150.497C321.334 149.087 324.161 147.064 326.676 145.264C327.965 144.34 329.17 143.478 330.331 142.792C334.859 140.118 339.274 138.929 342.735 138.171Z" fill="#005932"/>
<path fill-rule="evenodd" clip-rule="evenodd" d="M341.631 132.585C339.625 127.165 335.141 120.667 330.456 114.791C325.388 114.088 323.216 113.988 322.784 115.37C322.216 117.195 331.788 130.3 336.871 131.903C338.381 132.379 340.041 132.562 341.631 132.585Z" fill="#008C7B"/>
<path fill-rule="evenodd" clip-rule="evenodd" d="M40.6358 129.522C39.852 129.744 39.0777 129.968 38.3167 130.198C24.7096 134.32 17.1946 140.988 14.0581 145.526C21.7108 148.724 40.2372 143.841 44.8137 142.702C50.2705 141.344 49.0114 133.721 47.4374 131.791C45.7143 130.126 43.3451 129.478 40.6358 129.522Z" fill="white"/>
<path fill-rule="evenodd" clip-rule="evenodd" d="M312.138 119.423C308.121 123.794 256.477 123.625 242.479 123.627C213.2 123.632 147.236 128.961 147.236 128.068C147.236 126.427 156.827 125.986 178.886 123.752C190.101 122.617 204.539 121.443 222.577 120.484C276.096 117.638 317.982 113.061 312.138 119.423Z" fill="#008C7B"/>
<path fill-rule="evenodd" clip-rule="evenodd" d="M36.2107 132.733C33.6314 132.733 29.3976 135.468 26.753 138.842C24.1083 142.216 24.0557 144.951 26.6343 144.951C29.2135 144.951 33.448 142.216 36.0926 138.842C38.7366 135.468 38.7899 132.733 36.2107 132.733Z" fill="#EDEEED"/>
<path fill-rule="evenodd" clip-rule="evenodd" d="M302.751 148.896C287.041 148.896 274.306 161.57 274.306 177.204C274.306 183.279 276.23 188.908 279.503 193.519C297.325 183.988 312.966 172.797 325.826 160.65C320.66 153.531 312.251 148.896 302.751 148.896Z" fill="#040606"/>
<path fill-rule="evenodd" clip-rule="evenodd" d="M81.6948 148.896C65.9851 148.896 53.25 161.57 53.25 177.204C53.25 192.838 65.9851 205.513 81.6948 205.513C97.4046 205.513 110.14 192.838 110.14 177.204C110.14 161.57 97.4046 148.896 81.6948 148.896Z" fill="#040606"/>
<path fill-rule="evenodd" clip-rule="evenodd" d="M285.603 88.7737C289.542 92.0075 295.057 107.296 296.042 112.882C296.042 112.882 232.129 116.018 222.577 117.195L224.054 82.1091C224.054 82.1091 280.876 85.0491 285.603 88.7737Z" fill="white"/>
<path fill-rule="evenodd" clip-rule="evenodd" d="M222.776 112.462L222.853 110.645C223.611 110.589 224.337 110.436 224.995 110.169C226.091 109.726 227.009 108.956 227.579 107.78C228.324 106.243 228.507 104.004 227.793 100.885C226.452 95.0291 229.439 92.4193 234.067 91.3696C238.185 90.4361 243.603 90.8295 248.216 91.1649C252.105 91.4472 255.394 91.686 256.436 91.0904C258.368 89.9857 257.742 87.9848 256.577 85.9656C256.252 85.4041 255.874 84.8211 255.486 84.2464C256.251 84.3108 257.015 84.3765 257.777 84.4435C257.904 84.6487 258.029 84.8559 258.15 85.0662C259.797 87.9185 260.577 90.8049 257.34 92.6561C255.808 93.5322 252.271 93.2751 248.089 92.9713C243.593 92.6448 238.314 92.2608 234.466 93.133C230.86 93.9509 228.531 95.9701 229.565 100.487C230.379 104.044 230.13 106.681 229.216 108.567C228.431 110.185 227.175 111.242 225.679 111.848C224.779 112.212 223.794 112.409 222.776 112.462ZM285.603 88.7737C288.063 90.7936 291.139 97.5169 293.341 103.641C288.303 105.51 281.556 105.601 278.121 107.94C275.935 109.429 276.283 111.595 277.706 113.812C263.993 114.525 245.621 115.516 233.646 116.311C240.619 110.239 236.128 103.271 241.096 99.6517C248.006 94.6166 264.444 99.6517 269.149 94.2831C270.792 92.4085 271.308 89.2 271.284 85.8184C278.622 86.7052 284.25 87.7076 285.603 88.7737Z" fill="#EDEEED"/>
<path fill-rule="evenodd" clip-rule="evenodd" d="M213.714 82.1091L207.116 118.566C207.116 118.566 130.893 125.721 130.006 124.839C129.12 123.957 135.407 106.616 135.899 105.402C136.391 104.189 164.671 85.9315 213.714 82.1091Z" fill="white"/>
<path fill-rule="evenodd" clip-rule="evenodd" d="M134.035 110.559C134.423 109.448 134.783 108.439 135.083 107.61C137.337 106.575 139.594 106.745 141.48 106.887C143.008 107.001 144.215 107.092 144.606 106.31C145.005 105.515 144.236 104.22 143.399 102.808C143.084 102.279 142.763 101.737 142.474 101.184C142.984 100.909 143.522 100.626 144.09 100.334C144.356 100.861 144.664 101.382 144.964 101.887C146.065 103.743 147.075 105.444 146.236 107.117C145.298 108.99 143.553 108.859 141.345 108.692C139.221 108.533 136.547 108.332 134.035 110.559ZM213.714 82.1091L211.969 91.7517C204.225 92.4944 196.341 92.7793 195.095 96.0175C191.958 104.168 205.209 103.885 202.239 114.919C201.704 116.905 200.644 118.304 199.261 119.296C179.777 121.094 130.717 125.545 130.007 124.839C129.783 124.617 130.017 123.345 130.498 121.551C146.222 115.919 165.473 117.412 165.473 112.882C165.473 106.803 152.057 107.94 153.799 101.065C155.496 94.3646 182.998 93.6231 184.405 86.4001C193.118 84.494 202.911 82.951 213.714 82.1091Z" fill="#EDEEED"/>
<path fill-rule="evenodd" clip-rule="evenodd" d="M132.583 107.94C132.583 107.94 107.889 123.105 106.809 124.914C105.728 126.723 128.009 124.914 128.009 124.914C128.009 124.914 129.09 117.208 132.583 107.94Z" fill="white"/>
<path fill-rule="evenodd" clip-rule="evenodd" d="M149.667 116.829C149.407 121.504 145.651 122.697 143.042 122.386C140.434 122.075 133.965 119.838 133.965 116.829C133.965 113.82 137.721 110.498 141.817 110.498C145.912 110.498 149.898 112.653 149.667 116.829Z" fill="#008C7B"/>
<path fill-rule="evenodd" clip-rule="evenodd" d="M294.949 122.023C295.002 123.944 297.14 124.827 290.515 124.619C283.89 124.41 277.63 126.072 278.151 124.047C278.674 122.023 283.186 120.673 286.72 120.673C290.254 120.673 295.319 119.738 294.949 122.023Z" fill="white"/>
<path fill-rule="evenodd" clip-rule="evenodd" d="M209.086 127.318C209.138 129.238 211.277 130.121 204.653 129.913C198.027 129.705 191.768 131.367 192.289 129.342C192.81 127.318 197.323 125.967 200.857 125.967C204.392 125.967 209.456 125.033 209.086 127.318Z" fill="white"/>
<path d="M218.936 82.1091L215.049 117.195C213.714 122.433 210.603 153.581 210.603 178.672M296.042 112.882C296.042 112.882 301.195 132.403 298.257 137.708C295.319 143.014 287.857 143.709 277.633 153.363C267.408 163.016 267.757 175.65 264.698 177.204C261.64 178.758 210.603 178.672 210.603 178.672C210.603 178.672 132.346 181.53 130.006 179.367C127.668 177.204 127.668 153.905 127.668 147.372C127.668 140.839 127.358 128.909 129.97 124.785" stroke="#005932" stroke-width="3.77953" stroke-miterlimit="22.9256"/>
<path fill-rule="evenodd" clip-rule="evenodd" d="M16.3701 156.909C16.3701 157.586 37.0791 159.834 41.351 158.263C45.6229 156.693 45.2967 153.659 40.7252 153.659C36.1537 153.659 31.0644 155.525 25.7859 155.88C20.5062 156.234 16.3701 156.234 16.3701 156.909Z" fill="#008C7B"/>
<path fill-rule="evenodd" clip-rule="evenodd" d="M27.2703 166.4C27.2703 166.4 26.7321 171.175 27.1237 172.782C27.5153 174.39 28.2496 175.901 30.1593 175.852C32.069 175.804 35.0443 173.318 35.0443 169.518C35.0443 165.718 27.2703 166.4 27.2703 166.4Z" fill="white"/>
<path d="M23.793 164.94C28.7401 165.428 34.1658 164.335 35.9734 166.738C37.6013 168.901 37.2858 171.702 34.1722 175.853" stroke="#005932" stroke-width="2.83464" stroke-miterlimit="22.9256"/>
<path fill-rule="evenodd" clip-rule="evenodd" d="M302.751 159.164C292.74 159.164 284.624 167.241 284.624 177.204C284.624 181.446 286.095 185.346 288.558 188.426C299.367 182.031 309.259 175.02 318.078 167.568C314.865 162.517 309.202 159.164 302.751 159.164Z" fill="#252627"/>
<path fill-rule="evenodd" clip-rule="evenodd" d="M316.248 169.09C314.418 166.082 311.602 163.736 308.246 162.493C309.719 165.102 310.561 168.113 310.561 171.318C310.561 172.137 310.506 172.942 310.399 173.732C312.396 172.206 314.345 170.658 316.248 169.09Z" fill="#56595B"/>
<path fill-rule="evenodd" clip-rule="evenodd" d="M81.6947 159.164C71.6829 159.164 63.5669 167.241 63.5669 177.204C63.5669 187.168 71.6829 195.245 81.6947 195.245C91.7065 195.245 99.8225 187.168 99.8225 177.204C99.8225 167.241 91.7065 159.164 81.6947 159.164Z" fill="#252627"/>
<path fill-rule="evenodd" clip-rule="evenodd" d="M72.2754 189.788C74.9035 191.739 78.1631 192.895 81.695 192.895C90.4026 192.895 97.4619 185.87 97.4619 177.204C97.4619 173.151 95.9178 169.459 93.3829 166.674C93.9357 168.402 94.2353 170.243 94.2353 172.153C94.2353 182.116 86.1192 190.193 76.1075 190.193C74.7925 190.193 73.5111 190.052 72.2754 189.788Z" fill="#56595B"/>
<path fill-rule="evenodd" clip-rule="evenodd" d="M44.6583 134.011C42.9498 134.011 40.1446 135.823 38.3929 138.058C36.6413 140.293 36.6057 142.105 38.3142 142.105C40.0227 142.105 42.8279 140.293 44.5796 138.058C46.3319 135.823 46.3668 134.011 44.6583 134.011Z" fill="#E3ED51"/>
<path fill-rule="evenodd" clip-rule="evenodd" d="M138.035 119.168C139.704 120.102 140.969 120.438 139.449 124.45C137.93 128.46 136.989 129.083 132.582 129.083C128.175 129.083 128.54 125.968 131.253 123.165C133.965 120.361 136.104 118.285 138.035 119.168Z" fill="#005932"/>
<path fill-rule="evenodd" clip-rule="evenodd" d="M213.407 45.2022C215.973 45.2022 218.053 45.6153 218.053 46.1244C218.053 46.6341 215.973 47.0471 213.407 47.0471C210.842 47.0471 208.762 46.6341 208.762 46.1244C208.762 45.6153 210.842 45.2022 213.407 45.2022Z" fill="#C3C5C3"/>
<path fill-rule="evenodd" clip-rule="evenodd" d="M213.407 1.52588e-05C220.918 1.52588e-05 227.007 6.05956 227.007 13.5339C227.007 21.0095 213.407 46.1244 213.407 46.1244C213.407 46.1244 199.807 21.0095 199.807 13.5339C199.807 6.05956 205.897 1.52588e-05 213.407 1.52588e-05Z" fill="#008C7B"/>
<path fill-rule="evenodd" clip-rule="evenodd" d="M213.407 8.91123C215.973 8.91123 218.053 10.981 218.053 13.5339C218.053 16.0874 215.973 18.1578 213.407 18.1578C210.842 18.1578 208.762 16.0874 208.762 13.5339C208.762 10.981 210.842 8.91123 213.407 8.91123Z" fill="#B9E5D1"/>
<path fill-rule="evenodd" clip-rule="evenodd" d="M70.4107 38.0671C70.4107 38.0671 70.2304 43.9807 68.1595 45.7726C66.0893 47.5644 65.2788 37.9774 65.2788 37.9774L70.4107 38.0671Z" fill="#040606"/>
<path fill-rule="evenodd" clip-rule="evenodd" d="M59.0959 217.085C58.6111 217.084 58.1243 217.084 57.6369 217.084C25.8048 217.084 0 218.856 0 221.042C0 223.228 25.8048 225 57.6369 225C68.9433 225 79.4876 224.776 88.3874 224.39C104.543 223.689 115.274 222.451 115.274 221.042C115.274 218.889 90.2533 217.138 59.0959 217.085Z" fill="#E1E2DF"/>
<path fill-rule="evenodd" clip-rule="evenodd" d="M67.8099 72.7387C67.834 70.3291 67.9133 67.624 66.5735 65.4601C65.2338 63.2969 58.9767 64.6561 54.2567 64.4868C49.5374 64.3176 38.3718 61.3592 36.7058 65.2909C35.0405 69.2232 36.7058 72.1039 36.7058 72.1039C36.7058 72.1039 32.5678 75.5322 30.0431 79.6793C27.5178 83.8264 25.4571 91.7353 24.0659 94.4454C22.6747 97.1563 21.335 103.885 22.1594 108.455C22.9838 113.025 22.7776 118.23 24.5299 119.923C26.2815 121.616 31.5885 123.417 39.3168 123.849C47.0457 124.282 64.0559 128.056 64.0559 117.543C64.0559 107.03 71.6096 100.242 67.8099 72.7387Z" fill="#008C7B"/>
<path fill-rule="evenodd" clip-rule="evenodd" d="M67.81 72.7387C67.8291 70.8015 67.8843 68.6731 67.209 66.789C64.8436 66.8225 62.0041 67.1408 59.5721 67.0536C54.8528 66.8844 43.6872 63.926 42.0219 67.8577C40.3565 71.7894 42.0219 74.6707 42.0219 74.6707C42.0219 74.6707 37.8826 78.0984 35.3586 82.2455C32.8339 86.3926 30.7725 94.3014 29.3813 97.0123C27.9902 99.7231 26.6504 106.451 27.4748 111.022C28.2815 115.492 28.1025 120.57 29.7336 122.373C32.2386 123.083 35.4792 123.635 39.317 123.849C47.0458 124.282 64.056 128.056 64.056 117.543C64.056 107.03 71.6097 100.242 67.81 72.7387Z" fill="#008C7B"/>
<path fill-rule="evenodd" clip-rule="evenodd" d="M95.853 215.353C95.853 215.353 96.5657 221.227 90.9445 221.044C85.324 220.861 80.79 220.123 80.79 220.123V221.044H71.8711V216.86L95.853 215.353Z" fill="#642815"/>
<path fill-rule="evenodd" clip-rule="evenodd" d="M73.5229 132.837L81.5793 205.621H72.3894L58.6763 153.686L47.2879 208.5H38.0289L37.9629 132.837H73.5229Z" fill="#1A1A1A"/>
<path fill-rule="evenodd" clip-rule="evenodd" d="M68.9688 101.708C70.9356 107.308 74.8698 112.639 81.2951 112.101C87.7211 111.562 81.2951 94.868 81.2951 94.868L68.9688 101.708Z" fill="#FAB682"/>
<path fill-rule="evenodd" clip-rule="evenodd" d="M83.1806 100.916C82.3523 97.6155 81.295 94.868 81.295 94.868L75.4542 98.1087C75.3654 101.924 76.4328 105.826 81.1097 106.018L83.1806 100.916Z" fill="#F8A074"/>
<path fill-rule="evenodd" clip-rule="evenodd" d="M51.0165 58.2056L49.5371 75.7811H61.7994C61.7994 75.7811 58.9993 66.1125 58.9993 61.1513L51.0165 58.2056Z" fill="#FAB682"/>
<path fill-rule="evenodd" clip-rule="evenodd" d="M51.0165 58.2056L50.708 61.8714C53.4802 64.7041 57.1644 67.3341 59.9798 68.4192C59.4441 65.8549 58.9992 63.1295 58.9992 61.1514L51.0165 58.2056Z" fill="#F57D5C"/>
<path fill-rule="evenodd" clip-rule="evenodd" d="M68.204 34.7872C68.204 34.7872 72.6713 63.9323 58.1275 63.9323C43.583 63.9323 45.294 44.0319 45.294 39.0214V34.7872H68.204Z" fill="#FAB682"/>
<path fill-rule="evenodd" clip-rule="evenodd" d="M43.5492 46.5677C48.049 46.9246 51.3429 43.9605 51.3429 41.5112C51.3429 39.0618 49.9631 36.6561 49.9631 36.6561C49.9631 36.6561 54.6577 41.7846 62.3974 41.6507C70.1371 41.5168 73.5617 37.5296 73.1111 32.5115C72.8198 29.2563 69.8223 26.5903 67.0628 26.5903C64.3026 26.5903 59.5027 28.6392 56.1428 28.6392C52.7829 28.6392 49.0492 27.2137 46.6864 29.2183C44.3229 31.2224 44.5031 33.2265 44.5031 33.2265C44.5031 33.2265 38.7544 34.652 38.7544 39.5961C38.7544 44.5397 42.5274 46.8924 43.4103 46.845L43.5492 46.5677Z" fill="#040606"/>
<path fill-rule="evenodd" clip-rule="evenodd" d="M56.0428 48.3558C56.5308 48.3558 56.9269 48.7676 56.9269 49.2754C56.9269 49.7832 56.5308 50.195 56.0428 50.195C55.5547 50.195 55.1587 49.7832 55.1587 49.2754C55.1587 48.7676 55.5547 48.3558 56.0428 48.3558Z" fill="#040606"/>
<path fill-rule="evenodd" clip-rule="evenodd" d="M64.9354 48.4739C65.4234 48.4739 65.8188 48.8857 65.8188 49.3936C65.8188 49.902 65.4234 50.3138 64.9354 50.3138C64.4473 50.3138 64.0513 49.902 64.0513 49.3936C64.0513 48.8857 64.4473 48.4739 64.9354 48.4739Z" fill="#040606"/>
<path fill-rule="evenodd" clip-rule="evenodd" d="M61.5869 48.5996C63.0238 51.174 63.9879 53.2134 59.5446 53.9998C59.3333 54.0244 59.1467 53.9164 59.1289 53.7598C59.1105 53.6025 59.2673 53.4553 59.4786 53.4313C63.1964 52.7764 62.141 51.1178 60.8869 48.8718C60.7993 48.7322 60.885 48.5573 61.0786 48.4827C61.2715 48.407 61.4994 48.4594 61.5869 48.5996Z" fill="#F57D5C"/>
<path fill-rule="evenodd" clip-rule="evenodd" d="M35.1763 79.2744C36.4088 77.4516 50.0019 70.2583 50.0019 70.2583C50.0019 70.2583 52.1877 74.7661 56.379 74.7661C60.5703 74.7661 60.2777 69.7922 60.2777 69.7922C60.2777 69.7922 74.6845 73.6046 76.0408 75.0724C77.3964 76.5402 83.3749 99.3713 83.3749 99.3713C83.3749 99.3713 79.4305 102.408 71.7879 101.953C71.7879 101.953 73.6367 120.733 74.2536 124.783C74.8692 128.832 76.1886 131.753 75.8193 132.21C73.3155 135.304 65.2699 136.462 61.7209 136.939C53.1778 138.086 43.5258 136.677 35.8166 132.72C34.8304 132.214 37.3335 110.66 38.0728 106.812C38.0728 106.812 28.7662 104.585 28.7046 103.978C28.6431 103.37 34.0053 80.8938 35.1763 79.2744Z" fill="#B9E5D1"/>
<path fill-rule="evenodd" clip-rule="evenodd" d="M77.2255 101.675C76.2805 101.839 75.2282 101.953 74.0706 101.988L73.5464 82.3187C77.4584 88.8937 77.3423 98.902 77.2255 101.675Z" fill="#008C7B"/>
<path fill-rule="evenodd" clip-rule="evenodd" d="M48.5625 71.0295L48.8995 70.8483C49.4478 72.0534 50.5718 73.3987 51.963 74.4042C53.3643 75.4166 55.0316 76.0773 56.6373 75.8834C59.7839 75.5044 60.8483 73.8673 61.0888 72.2258C61.2043 71.4376 61.1338 70.6474 61.0114 69.9893L61.4309 70.103C61.5394 70.751 61.5927 71.5077 61.4816 72.2643C61.2221 74.0334 60.0778 75.7975 56.695 76.2049C54.9592 76.4139 53.1828 75.7179 51.7015 74.648C50.2919 73.6298 49.1464 72.2675 48.5625 71.0295Z" fill="#008C7B"/>
<path fill-rule="evenodd" clip-rule="evenodd" d="M78.9347 103.503C78.0163 107.954 79.5414 111.876 81.8465 112.007C84.151 112.138 86.3437 111.077 89.7531 104.83C93.1625 98.5837 96.3758 82.4823 96.9 81.5665C97.4249 80.6513 102.474 81.5128 103.916 79.7355C105.358 77.9588 106.342 69.7923 103.916 69.7923C101.49 69.7923 93.7096 73.0046 92.0265 79.4128C90.3433 85.821 83.3748 90.9047 78.9347 103.503Z" fill="#FAB682"/>
<path fill-rule="evenodd" clip-rule="evenodd" d="M80.2702 200.316C83.5914 201.541 81.7611 208.109 82.5747 209.333C83.3877 210.557 85.4205 211.392 88.4707 210.779C91.5202 210.168 96.6705 210.725 96.6705 214.398C96.6705 218.071 95.3618 219.407 88.4707 219.407C81.5796 219.407 72.0476 219.419 71.6262 218.127C71.2048 216.835 71.1902 205.601 72.0514 204.376C72.3205 204.056 74.6154 204.712 75.502 203.933C76.8298 202.766 77.1769 200.14 80.2702 200.316Z" fill="#B9E5D1"/>
<path fill-rule="evenodd" clip-rule="evenodd" d="M89.9298 210.596C88.4041 210.791 87.4273 212.005 86.8346 213.06C86.7565 213.227 86.5287 213.312 86.3237 213.249C86.1193 213.185 86.0159 212.997 86.0939 212.829C86.8625 211.463 87.9833 210.174 89.9298 209.946C90.1488 209.946 90.3258 210.092 90.3258 210.271C90.3258 210.451 90.1488 210.596 89.9298 210.596Z" fill="#040606"/>
<path fill-rule="evenodd" clip-rule="evenodd" d="M86.4635 210.938C85.2723 211.104 84.0988 211.92 83.4997 212.753C83.4095 212.916 83.1753 212.99 82.9754 212.916C82.7761 212.842 82.6873 212.649 82.7774 212.486C83.5593 211.393 84.9061 210.484 86.4635 210.288C86.6825 210.288 86.8595 210.434 86.8595 210.613C86.8595 210.793 86.6825 210.938 86.4635 210.938Z" fill="#040606"/>
<path fill-rule="evenodd" clip-rule="evenodd" d="M83.4632 210.25C82.9129 210.214 81.9247 211.029 81.6226 211.306C81.509 211.46 81.266 211.51 81.0787 211.416C80.8915 211.323 80.8319 211.123 80.9448 210.969C81.5744 210.373 82.5937 209.504 83.6745 209.622C83.8852 209.671 84.0083 209.85 83.9506 210.023C83.8916 210.197 83.6739 210.298 83.4632 210.25Z" fill="#040606"/>
<path fill-rule="evenodd" clip-rule="evenodd" d="M82.4234 206.754L82.4945 206.787C83.7169 206.576 84.7088 206.174 84.7913 205.52C84.2303 205.578 83.35 206.08 82.4234 206.754ZM80.8381 206.958C80.8761 206.929 80.9136 206.9 80.9517 206.871C79.3441 206.212 77.8704 205.851 77.6419 206.583C77.9104 206.869 79.3314 207.025 80.8381 206.958ZM77.8621 210.224C78.4156 209.278 79.1664 208.415 79.9838 207.673C77.4337 207.469 75.4619 206.48 77.727 205.674C78.5831 205.368 80.0917 205.775 81.6117 206.401C84.1243 204.712 86.4967 204.285 85.3911 206.082C85.0294 206.67 84.3858 207.073 83.6077 207.332C84.6632 207.878 85.5599 208.423 86.0232 208.757C86.1616 208.896 86.1368 209.101 85.9674 209.214C85.7979 209.328 85.5485 209.307 85.4101 209.169C85.1417 208.977 83.9295 208.268 82.5377 207.589C82.1074 207.658 81.6599 207.697 81.2125 207.707C80.0479 208.692 79.0007 209.764 78.6345 210.368C78.5856 210.543 78.3737 210.653 78.1604 210.613C77.9472 210.573 77.8133 210.399 77.8621 210.224Z" fill="#040606"/>
<path fill-rule="evenodd" clip-rule="evenodd" d="M67.834 70.3291C70.4443 70.938 71.8552 72.8214 73.0553 77.11C74.2548 81.3979 76.195 93.8 75.5953 100.377C74.9955 106.955 72.9481 113.373 72.9481 113.373C72.9481 113.373 71.6794 100.725 71.3621 97.9432C71.0441 95.1617 67.7985 78.4136 66.3165 74.8792C64.8352 71.3435 63.8471 70.8673 64.0939 70.3291C64.3408 69.7923 67.834 70.3291 67.834 70.3291Z" fill="#008C7B"/>
<path fill-rule="evenodd" clip-rule="evenodd" d="M35.5765 217.171L33.8857 217.227C33.986 220.091 33.2485 224.122 42.2106 224.241C51.172 224.36 50.5341 221.33 50.5703 218.144L35.5765 217.171Z" fill="#642815"/>
<path fill-rule="evenodd" clip-rule="evenodd" d="M42.6447 72.3673C45.1015 71.0902 46.2712 71.243 46.5625 71.6012C46.8538 71.9593 49.0294 74.7168 49.5371 79.0073C50.0455 83.2971 50.8845 92.4906 50.4802 98.2369C50.0766 103.983 43.7769 116.777 36.7056 117.543V106.506C37.2774 106.65 37.7559 106.76 38.0726 106.812C39.8211 107.1 44.1254 107.215 45.8897 106.433C45.8897 106.433 46.8138 99.682 46.8138 96.2625C46.8138 93.4867 44.9765 80.7 43.2978 78.2405C41.6185 75.7811 40.8099 75.2783 40.7483 74.8697C40.6862 74.461 41.0282 73.3122 42.6447 72.3673Z" fill="#008C7B"/>
<path fill-rule="evenodd" clip-rule="evenodd" d="M41.6086 48.5617C41.6086 50.5083 43.2035 51.8599 45.2313 51.8599C47.259 51.8599 47.9407 49.1384 47.9407 48.5181C47.9407 47.8973 47.0553 45.4277 44.775 45.4277C42.4953 45.4277 41.4855 47.2745 41.6086 48.5617Z" fill="#FAB682"/>
<path fill-rule="evenodd" clip-rule="evenodd" d="M44.3566 46.7484C45.5384 46.6101 46.8502 47.3143 46.7156 48.6893C46.6928 48.9211 45.169 48.9319 45.4958 49.3455C45.8887 49.8432 46.5773 49.6329 46.7778 49.4674C46.6833 49.9803 45.2813 50.3668 44.9646 49.4643C44.811 49.0253 45.1423 48.4657 46.0639 48.4455C45.8709 47.4046 45.1671 47.0844 44.5083 47.1823C43.1597 47.3825 43.0168 48.0104 42.9248 48.4013C42.7046 47.8903 43.0454 46.9031 44.3566 46.7484Z" fill="#F57D5C"/>
<path fill-rule="evenodd" clip-rule="evenodd" d="M31.1729 104.944C30.4056 107.422 29.5697 111.334 30.5325 114.655C32.0779 119.987 42.4863 146.9 42.4863 146.9L46.8141 143.853C46.8141 143.853 41.2545 115.758 40.9454 113.326C40.9454 113.326 42.4838 110.778 43.4904 106.941C41.5585 107.12 39.2661 106.74 38.0729 106.545C36.8804 106.349 33.2578 105.565 31.1729 104.944Z" fill="#FAB682"/>
<path fill-rule="evenodd" clip-rule="evenodd" d="M94.8588 59.1125L103.671 59.7776C104.322 59.8269 104.805 60.3044 104.746 60.8387L102.954 76.8428C102.894 77.3777 102.313 77.7744 101.662 77.7251L92.8495 77.0601C92.199 77.0108 91.7153 76.5333 91.775 75.999L93.5666 59.9949C93.6263 59.4599 94.2077 59.0633 94.8588 59.1125Z" fill="#008C7B"/>
<path fill-rule="evenodd" clip-rule="evenodd" d="M102.604 60.6076C103.108 60.6455 103.482 61.0149 103.436 61.4293L103.169 63.8041C103.124 64.2178 102.674 64.5254 102.17 64.4875C101.666 64.4489 101.291 64.0795 101.338 63.6664L101.604 61.2903C101.65 60.8772 102.1 60.5697 102.604 60.6076Z" fill="#040606"/>
<path fill-rule="evenodd" clip-rule="evenodd" d="M102.555 61.0446C102.879 61.0692 103.118 61.3048 103.089 61.5714C103.059 61.8379 102.771 62.0343 102.447 62.0097C102.122 61.9851 101.883 61.7488 101.913 61.4829C101.943 61.2164 102.23 61.02 102.555 61.0446Z" fill="#252627"/>
<path fill-rule="evenodd" clip-rule="evenodd" d="M102.286 63.4497C102.477 63.4643 102.618 63.6039 102.6 63.7618C102.583 63.919 102.413 64.0346 102.222 64.0201C102.03 64.0055 101.889 63.8666 101.907 63.7087C101.924 63.5514 102.093 63.4352 102.286 63.4497Z" fill="white"/>
<path fill-rule="evenodd" clip-rule="evenodd" d="M102.421 62.2472C102.745 62.2718 102.984 62.5074 102.954 62.7746C102.924 63.0405 102.637 63.2369 102.313 63.2123C101.988 63.1876 101.749 62.952 101.779 62.6855C101.809 62.419 102.096 62.2226 102.421 62.2472Z" fill="#252627"/>
<path fill-rule="evenodd" clip-rule="evenodd" d="M43.3569 205.194C49.746 205.448 47.7367 210.757 47.5304 213.054C47.3248 215.35 50.4676 216.112 50.5704 218.144C50.6732 220.174 48.8188 222.604 42.4036 222.604C35.9891 222.604 33.877 220.287 33.877 216.833C33.877 213.379 37.3447 213.058 37.3447 210.938C37.3447 208.818 35.5156 205.332 43.3569 205.194Z" fill="#B9E5D1"/>
<path fill-rule="evenodd" clip-rule="evenodd" d="M39.1074 215.98C40.5265 215.072 42.838 215.247 44.2558 216.063C44.41 216.19 44.41 216.396 44.2558 216.523C44.1009 216.65 43.8503 216.65 43.6954 216.523C42.6806 215.961 40.6655 215.806 39.6475 216.456C39.487 216.579 39.2363 216.571 39.0878 216.44C38.9386 216.309 38.9475 216.103 39.1074 215.98Z" fill="#040606"/>
<path fill-rule="evenodd" clip-rule="evenodd" d="M39.6058 213.852C40.7964 213.264 42.7696 213.152 43.8688 213.967C44.0148 214.101 44.0008 214.307 43.8377 214.427C43.6752 214.546 43.4245 214.535 43.2786 214.401C42.5944 213.901 40.8618 213.992 40.1249 214.343C39.9599 214.461 39.7099 214.447 39.5664 214.311C39.423 214.175 39.4401 213.97 39.6058 213.852Z" fill="#040606"/>
<path fill-rule="evenodd" clip-rule="evenodd" d="M39.6614 212.138C40.5055 211.181 43.0328 211.091 44.073 212.107C44.1942 212.256 44.1453 212.459 43.9638 212.559C43.7823 212.658 43.536 212.618 43.4142 212.468C42.7598 211.831 40.781 211.995 40.364 212.437C40.2631 212.597 40.0245 212.659 39.8303 212.577C39.6361 212.494 39.5605 212.297 39.6614 212.138Z" fill="#040606"/>
<path fill-rule="evenodd" clip-rule="evenodd" d="M43.2994 209.381C44.7014 209.442 45.9935 209.246 46.3724 208.651C46.1122 208.119 44.789 208.582 43.2994 209.381ZM41.3815 209.145C40.5101 208.333 39.7897 207.699 39.0205 207.714C38.9996 207.726 38.9761 207.742 38.971 207.759C38.8048 208.333 39.9433 208.853 41.3815 209.145ZM37.9835 212.358C38.9374 211.224 39.9655 210.348 40.9785 209.687C38.8911 209.117 37.4021 208.022 38.4798 207.236C39.4343 206.54 40.9277 207.725 42.277 208.946C45.6483 207.29 48.3811 207.95 46.8579 209.184C46.0316 209.855 44.7902 210.096 43.5012 210.065C43.9436 210.458 44.3358 210.775 44.643 210.92C45.7149 211.428 46.024 211.475 47.1804 211.821C47.3892 211.873 47.5066 212.056 47.4425 212.227C47.3777 212.399 47.1562 212.496 46.9468 212.443L45.5778 212.033C44.2102 211.547 43.1566 210.747 42.2744 209.965C40.7335 210.894 39.2312 212.013 38.7032 212.63C38.6118 212.794 38.377 212.865 38.1777 212.791C37.9797 212.715 37.8921 212.522 37.9835 212.358Z" fill="#040606"/>
<path fill-rule="evenodd" clip-rule="evenodd" d="M41.7632 107.028C42.6409 105.438 45.8307 100.002 46.2845 90.971C46.6133 93.3376 46.8138 95.3461 46.8138 96.2626C46.8138 99.682 45.8897 106.433 45.8897 106.433C44.9663 106.842 43.3473 107.006 41.7632 107.028Z" fill="#008C7B"/>
<path fill-rule="evenodd" clip-rule="evenodd" d="M48.6292 142.474C46.3222 145.178 44.3966 147.176 40.2701 147.606C40.0517 147.606 39.874 147.461 39.874 147.281C39.874 147.101 40.0517 146.956 40.2701 146.956C44.0031 146.563 45.8716 144.577 47.9355 142.16C48.0415 142.002 48.2826 141.945 48.4743 142.032C48.6653 142.119 48.7351 142.317 48.6292 142.474Z" fill="#040606"/>
<path fill-rule="evenodd" clip-rule="evenodd" d="M104.481 69.995C104.481 69.995 100.426 66.5509 99.6157 67.3568C98.8053 68.1634 103.144 71.1098 103.144 71.1098C103.144 71.1098 98.4169 68.5562 98.2817 69.6312C98.1465 70.7068 102.873 73.5288 102.873 73.5288C102.873 73.5288 98.5521 72.1848 98.2817 73.3943C98.0113 74.6038 102.333 75.2758 102.333 75.2758C102.333 75.2758 97.8768 75.2758 97.6064 75.9478C97.3361 76.6198 103.414 78.0984 103.414 78.0984L104.481 69.995Z" fill="#FAB682"/>
<path d="M54.0798 46.3208C54.1515 46.2393 54.2264 46.1616 54.3064 46.0883C54.3489 46.0498 54.3927 46.0125 54.4365 45.9759C54.4923 45.9292 54.4441 45.9822 54.4168 45.9898C54.4365 45.9841 54.4619 45.9563 54.4784 45.9443C54.5666 45.8812 54.6586 45.8237 54.7532 45.7706C54.8033 45.7422 54.8541 45.7157 54.9055 45.6904C54.929 45.6791 54.9518 45.6683 54.9747 45.6576C54.9905 45.6506 55.0921 45.6033 55.0153 45.6393C54.9455 45.6715 55.0248 45.6367 55.0394 45.6311C55.0635 45.6216 55.0876 45.6134 55.1118 45.6045C55.1657 45.5856 55.2209 45.5679 55.2755 45.5521C55.3802 45.5224 55.4856 45.4978 55.5928 45.4789C55.6182 45.4744 55.6436 45.4713 55.6684 45.4668C55.7432 45.4536 55.5624 45.4763 55.6379 45.4713C55.6957 45.4675 55.7521 45.4599 55.8099 45.4574C55.9248 45.4517 56.0396 45.453 56.1545 45.4605C56.4382 45.4782 56.7098 45.199 56.6971 44.9199C56.6832 44.6123 56.4585 44.3994 56.1545 44.3799C55.0991 44.3135 54.0081 44.7645 53.3125 45.5572C53.1253 45.7694 53.0866 46.1149 53.3125 46.3208C53.5169 46.5077 53.8805 46.5481 54.0798 46.3208Z" fill="#040606"/>
<path d="M63.7838 47.2328C63.8904 47.2 63.9983 47.1722 64.1075 47.152C64.1417 47.145 64.3112 47.0958 64.1696 47.14C64.2192 47.1242 64.2852 47.1286 64.3359 47.1254C64.4476 47.1185 64.5593 47.1179 64.6704 47.1242C64.7262 47.1267 64.7815 47.1324 64.8373 47.1368C64.9516 47.1457 64.7339 47.1185 64.8792 47.1431C64.982 47.1608 65.0848 47.1829 65.1851 47.2107C65.2847 47.2379 65.4142 47.2625 65.5018 47.3168C65.3831 47.2436 65.5361 47.3326 65.5634 47.3459C65.6141 47.3699 65.663 47.3958 65.7119 47.4223C65.8096 47.4766 65.9029 47.5366 65.9937 47.601C66.2259 47.7653 66.608 47.6491 66.7369 47.4071C66.8841 47.1292 66.7902 46.8431 66.542 46.6682C65.6757 46.0555 64.5086 45.8818 63.495 46.1907C63.2234 46.2734 63.0235 46.5722 63.1155 46.8551C63.2043 47.1274 63.4925 47.3213 63.7838 47.2328Z" fill="#040606"/>
<path d="M56.431 55.7183C58.0284 57.0428 60.3741 57.2721 62.1778 56.2154C62.7795 55.863 62.2337 54.9289 61.6301 55.2825C60.272 56.0777 58.4194 55.9666 57.1983 54.9541C56.9736 54.7678 56.6512 54.735 56.431 54.9541C56.2381 55.1461 56.2044 55.5308 56.431 55.7183Z" fill="#040606"/>
</svg>
