<svg width="360" height="353" viewBox="0 0 360 353" fill="none" xmlns="http://www.w3.org/2000/svg">
<g opacity="0.4" clip-path="url(#clip0_1_43309)">
<path d="M364.016 529.663V299.791H329.889V273.436H321.902V228.118H279.074V273.436H239.032V211.319L194.846 194.567V247.526H184.77V177L140.584 191.668V297.598H84.7008V360.172H63.8224V375.933H15.8612V348.789H-11.6752V275.033H-45.6911V411.187H-79.7041V529.663H364.016Z" fill="#18BFAB"/>
<path d="M177.568 197.542H147.76V208.476H177.568V197.542Z" fill="#00A08D"/>
<path d="M177.568 218.079H147.76V229.013H177.568V218.079Z" fill="#00A08D"/>
<path d="M177.568 236.558H147.76V247.491H177.568V236.558Z" fill="#00A08D"/>
<path d="M232.588 236.558H201.238V247.491H232.588V236.558Z" fill="#00A08D"/>
<path d="M232.588 218.246H201.238V229.18H232.588V218.246Z" fill="#00A08D"/>
<path d="M232.588 254.474H147.002V265.407H232.588V254.474Z" fill="#00A08D"/>
<path d="M232.588 270.915H147.002V281.849H232.588V270.915Z" fill="#00A08D"/>
<path d="M232.588 287.242H147.002V297.757H232.588V287.242Z" fill="#00A08D"/>
<path d="M101.321 308.364H93.832V318.94H101.321V308.364Z" fill="#00A08D"/>
<path d="M115.328 308.364H107.839V318.94H115.328V308.364Z" fill="#00A08D"/>
<path d="M129.021 308.364H121.532V318.94H129.021V308.364Z" fill="#00A08D"/>
<path d="M142.01 308.364H134.518V318.94H142.01V308.364Z" fill="#00A08D"/>
<path d="M155.241 308.364H147.752V318.94H155.241V308.364Z" fill="#00A08D"/>
<path d="M168.627 308.364H161.135V318.94H168.627V308.364Z" fill="#00A08D"/>
<path d="M182.631 308.364H175.142V318.94H182.631V308.364Z" fill="#00A08D"/>
<path d="M196.325 308.364H188.835V318.94H196.325V308.364Z" fill="#00A08D"/>
<path d="M209.31 308.364H201.821V318.94H209.31V308.364Z" fill="#00A08D"/>
<path d="M222.541 308.364H215.052V318.94H222.541V308.364Z" fill="#00A08D"/>
<path d="M236.331 308.364H228.842V318.94H236.331V308.364Z" fill="#00A08D"/>
<path d="M250.341 308.364H242.852V318.94H250.341V308.364Z" fill="#00A08D"/>
<path d="M264.035 308.364H256.545V318.94H264.035V308.364Z" fill="#00A08D"/>
<path d="M277.017 308.364H269.528V318.94H277.017V308.364Z" fill="#00A08D"/>
<path d="M290.254 308.364H282.762V318.94H290.254V308.364Z" fill="#00A08D"/>
<path d="M303.634 308.364H296.145V318.94H303.634V308.364Z" fill="#00A08D"/>
<path d="M317.644 308.364H310.155V318.94H317.644V308.364Z" fill="#00A08D"/>
<path d="M331.338 308.364H323.849V318.94H331.338V308.364Z" fill="#00A08D"/>
<path d="M344.32 308.364H336.831V318.94H344.32V308.364Z" fill="#00A08D"/>
<path d="M357.554 308.364H350.065V318.94H357.554V308.364Z" fill="#00A08D"/>
<path d="M101.321 327.024H93.832V337.6H101.321V327.024Z" fill="#00A08D"/>
<path d="M115.328 327.024H107.839V337.6H115.328V327.024Z" fill="#00A08D"/>
<path d="M129.021 327.024H121.532V337.6H129.021V327.024Z" fill="#00A08D"/>
<path d="M142.01 327.024H134.518V337.6H142.01V327.024Z" fill="#00A08D"/>
<path d="M155.241 327.024H147.752V337.6H155.241V327.024Z" fill="#00A08D"/>
<path d="M168.627 327.024H161.135V337.6H168.627V327.024Z" fill="#00A08D"/>
<path d="M182.631 327.024H175.142V337.6H182.631V327.024Z" fill="#00A08D"/>
<path d="M196.325 327.024H188.835V337.6H196.325V327.024Z" fill="#00A08D"/>
<path d="M209.31 327.024H201.821V337.6H209.31V327.024Z" fill="#00A08D"/>
<path d="M222.541 327.024H215.052V337.6H222.541V327.024Z" fill="#00A08D"/>
<path d="M236.331 327.024H228.842V337.6H236.331V327.024Z" fill="#00A08D"/>
<path d="M250.341 327.024H242.852V337.6H250.341V327.024Z" fill="#00A08D"/>
<path d="M264.035 327.024H256.545V337.6H264.035V327.024Z" fill="#00A08D"/>
<path d="M277.017 327.024H269.528V337.6H277.017V327.024Z" fill="#00A08D"/>
<path d="M290.254 327.024H282.762V337.6H290.254V327.024Z" fill="#00A08D"/>
<path d="M303.634 327.024H296.145V337.6H303.634V327.024Z" fill="#00A08D"/>
<path d="M317.644 327.024H310.155V337.6H317.644V327.024Z" fill="#00A08D"/>
<path d="M331.338 327.024H323.849V337.6H331.338V327.024Z" fill="#00A08D"/>
<path d="M344.32 327.024H336.831V337.6H344.32V327.024Z" fill="#00A08D"/>
<path d="M357.554 327.024H350.065V337.6H357.554V327.024Z" fill="#00A08D"/>
<path d="M101.321 345.4H93.832V355.976H101.321V345.4Z" fill="#00A08D"/>
<path d="M115.328 345.4H107.839V355.976H115.328V345.4Z" fill="#00A08D"/>
<path d="M129.021 345.4H121.532V355.976H129.021V345.4Z" fill="#00A08D"/>
<path d="M142.01 345.4H134.518V355.976H142.01V345.4Z" fill="#00A08D"/>
<path d="M155.241 345.4H147.752V355.976H155.241V345.4Z" fill="#00A08D"/>
<path d="M168.627 345.4H161.135V355.976H168.627V345.4Z" fill="#00A08D"/>
<path d="M182.631 345.4H175.142V355.976H182.631V345.4Z" fill="#00A08D"/>
<path d="M196.325 345.4H188.835V355.976H196.325V345.4Z" fill="#00A08D"/>
<path d="M209.31 345.4H201.821V355.976H209.31V345.4Z" fill="#00A08D"/>
<path d="M222.541 345.4H215.052V355.976H222.541V345.4Z" fill="#00A08D"/>
<path d="M236.331 345.4H228.842V355.976H236.331V345.4Z" fill="#00A08D"/>
<path d="M250.341 345.4H242.852V355.976H250.341V345.4Z" fill="#00A08D"/>
<path d="M264.035 345.4H256.545V355.976H264.035V345.4Z" fill="#00A08D"/>
<path d="M277.017 345.4H269.528V355.976H277.017V345.4Z" fill="#00A08D"/>
<path d="M290.254 345.4H282.762V355.976H290.254V345.4Z" fill="#00A08D"/>
<path d="M303.634 345.4H296.145V355.976H303.634V345.4Z" fill="#00A08D"/>
<path d="M317.644 345.4H310.155V355.976H317.644V345.4Z" fill="#00A08D"/>
<path d="M331.338 345.4H323.849V355.976H331.338V345.4Z" fill="#00A08D"/>
<path d="M344.32 345.4H336.831V355.976H344.32V345.4Z" fill="#00A08D"/>
<path d="M357.554 345.4H350.065V355.976H357.554V345.4Z" fill="#00A08D"/>
<path d="M28.0506 348.789V326.793H28.952V348.789H41.3111V375.933H15.8613V348.789H28.0506Z" fill="#00A08D"/>
<path d="M-45.6733 291.917V275.039H-38.8456V267.696H-37.9413V275.039H-11.836H-11.3618H-6.42173V267.696H-5.52034V275.039H0.815758V348.79H-11.836V317.012H-45.6733V300.137H-11.836V291.917H-45.6733Z" fill="#00A08D"/>
<path d="M7.33607 353H178.888V252.49H7.33607V353Z" fill="#00A08D"/>
<path d="M114.52 276.488H123.666V262.5H114.52V276.488Z" fill="#18BFAB"/>
<path d="M97.9086 276.488H107.054V262.5H97.9086V276.488Z" fill="#18BFAB"/>
<path d="M81.7772 276.488H90.9229V262.5H81.7772V276.488Z" fill="#18BFAB"/>
<path d="M65.5433 276.488H74.689V262.5H65.5433V276.488Z" fill="#18BFAB"/>
<path d="M49.412 276.488H58.5576V262.5H49.412V276.488Z" fill="#18BFAB"/>
<path d="M32.4989 276.488H41.6445V262.5H32.4989V276.488Z" fill="#18BFAB"/>
<path d="M16.3675 276.488H25.5132V262.5H16.3675V276.488Z" fill="#18BFAB"/>
<path d="M163.014 297.174H172.16V283.186H163.014V297.174Z" fill="#18BFAB"/>
<path d="M146.886 297.174H156.031V283.186H146.886V297.174Z" fill="#18BFAB"/>
<path d="M130.649 297.174H139.794V283.186H130.649V297.174Z" fill="#18BFAB"/>
<path d="M114.52 297.174H123.666V283.186H114.52V297.174Z" fill="#18BFAB"/>
<path d="M97.9086 297.174H107.054V283.186H97.9086V297.174Z" fill="#18BFAB"/>
<path d="M81.7772 297.174H90.9229V283.186H81.7772V297.174Z" fill="#18BFAB"/>
<path d="M65.5433 297.174H74.689V283.186H65.5433V297.174Z" fill="#18BFAB"/>
<path d="M49.412 297.174H58.5576V283.186H49.412V297.174Z" fill="#18BFAB"/>
<path d="M32.4989 297.174H41.6445V283.186H32.4989V297.174Z" fill="#18BFAB"/>
<path d="M16.3675 297.174H25.5132V283.186H16.3675V297.174Z" fill="#18BFAB"/>
<path d="M163.014 319.396H172.16V305.409H163.014V319.396Z" fill="#18BFAB"/>
<path d="M146.886 319.396H156.031V305.409H146.886V319.396Z" fill="#18BFAB"/>
<path d="M130.649 319.396H139.794V305.409H130.649V319.396Z" fill="#18BFAB"/>
<path d="M114.52 319.396H123.666V305.409H114.52V319.396Z" fill="#18BFAB"/>
<path d="M97.9086 319.396H107.054V305.409H97.9086V319.396Z" fill="#18BFAB"/>
<path d="M81.7772 319.396H90.9229V305.409H81.7772V319.396Z" fill="#18BFAB"/>
<path d="M65.5433 319.396H74.689V305.409H65.5433V319.396Z" fill="#18BFAB"/>
<path d="M49.412 319.396H58.5576V305.409H49.412V319.396Z" fill="#18BFAB"/>
<path d="M32.4989 319.396H41.6445V305.409H32.4989V319.396Z" fill="#18BFAB"/>
<path d="M16.3675 319.396H25.5132V305.409H16.3675V319.396Z" fill="#18BFAB"/>
<path d="M163.014 340.082H172.16V326.094H163.014V340.082Z" fill="#18BFAB"/>
<path d="M146.886 340.082H156.031V326.094H146.886V340.082Z" fill="#18BFAB"/>
<path d="M66.4359 256.79H30.6377V225.528L66.4359 239.255V256.79Z" fill="#00A08D"/>
<path d="M242.869 353H324.794V263.743L242.869 292.15V353Z" fill="#00A08D"/>
<path d="M245.032 297.57H322.628V294.812H245.032V297.57Z" fill="#18BFAB"/>
<path d="M245.032 306.434H322.628V303.675H245.032V306.434Z" fill="#18BFAB"/>
<path d="M245.032 315.298H322.628V312.54H245.032V315.298Z" fill="#18BFAB"/>
<path d="M245.032 324.165H322.628V321.407H245.032V324.165Z" fill="#18BFAB"/>
<path d="M245.032 333.032H322.628V330.274H245.032V333.032Z" fill="#18BFAB"/>
<path d="M245.032 341.896H322.628V339.138H245.032V341.896Z" fill="#18BFAB"/>
<path d="M23.7514 252.2H30.6348L30.6348 225.529H23.7514L23.7514 252.2Z" fill="#00A08D"/>
<path d="M52.166 248.072V238.912H38.2003V248.072H52.166Z" fill="#18BFAB"/>
<path d="M312.718 272.685H317.465V232.347H312.718V272.685Z" fill="#00A08D"/>
<path d="M303.277 272.685H308.024V232.347H303.277V272.685Z" fill="#00A08D"/>
<path d="M293.965 272.685H298.712V232.347H293.965V272.685Z" fill="#00A08D"/>
<path d="M284.325 272.685H289.072V232.347H284.325V272.685Z" fill="#00A08D"/>
</g>
<defs>
<clipPath id="clip0_1_43309">
<rect width="544" height="353" fill="white" transform="translate(-100)"/>
</clipPath>
</defs>
</svg>
