<svg width="358" height="241" viewBox="0 0 358 241" fill="none" xmlns="http://www.w3.org/2000/svg">
<g opacity="0.4" clip-path="url(#clip0_1_43055)">
<path d="M5.97878 199.629H-14V240.8H5.97878V199.629Z" fill="#029583"/>
<path d="M303.305 240.77V83.8315H279.968V65.8384H274.507V34.8994H245.22V65.8384H217.838V23.4304L187.623 11.9934V48.1496H180.733V0L150.517 10.0141V82.3346H112.303V125.055H98.0257V135.815H65.2287V117.284H46.3987V66.9291H23.1378V159.884H-0.121094V240.77H303.305Z" fill="#18BFAB"/>
<path d="M175.807 14.0244H155.424V21.489H175.807V14.0244Z" fill="#00A08D"/>
<path d="M175.807 28.0449H155.424V35.5095H175.807V28.0449Z" fill="#00A08D"/>
<path d="M175.807 40.6611H155.424V48.1257H175.807V40.6611Z" fill="#00A08D"/>
<path d="M46.6149 101.202H23.1499V112.723H46.6149V101.202Z" fill="#00A08D"/>
<path d="M46.6149 136.568H23.1499V148.089H46.6149V136.568Z" fill="#00A08D"/>
<path d="M46.6149 153.973H23.1499V165.494H46.6149V153.973Z" fill="#00A08D"/>
<path d="M46.6149 172.182H23.1499V183.703H46.6149V172.182Z" fill="#00A08D"/>
<path d="M46.6149 190.013H23.1499V201.534H46.6149V190.013Z" fill="#00A08D"/>
<path d="M46.6149 208.222H23.1499V219.743H46.6149V208.222Z" fill="#00A08D"/>
<path d="M213.432 40.6611H191.994V48.1257H213.432V40.6611Z" fill="#00A08D"/>
<path d="M213.432 28.1592H191.994V35.6238H213.432V28.1592Z" fill="#00A08D"/>
<path d="M213.432 52.8926H154.906V60.3572H213.432V52.8926Z" fill="#00A08D"/>
<path d="M213.432 64.1172H154.906V71.5818H213.432V64.1172Z" fill="#00A08D"/>
<path d="M213.432 75.2637H154.906V82.4421H213.432V75.2637Z" fill="#00A08D"/>
<path d="M46.6149 119.163H23.1499V130.684H46.6149V119.163Z" fill="#00A08D"/>
<path d="M123.668 89.6855H118.547V96.906H123.668V89.6855Z" fill="#00A08D"/>
<path d="M133.246 89.6855H128.125V96.906H133.246V89.6855Z" fill="#00A08D"/>
<path d="M142.61 89.6855H137.489V96.906H142.61V89.6855Z" fill="#00A08D"/>
<path d="M151.492 89.6855H146.369V96.906H151.492V89.6855Z" fill="#00A08D"/>
<path d="M160.54 89.6855H155.418V96.906H160.54V89.6855Z" fill="#00A08D"/>
<path d="M169.694 89.6855H164.57V96.906H169.694V89.6855Z" fill="#00A08D"/>
<path d="M179.27 89.6855H174.148V96.906H179.27V89.6855Z" fill="#00A08D"/>
<path d="M188.633 89.6855H183.512V96.906H188.633V89.6855Z" fill="#00A08D"/>
<path d="M197.513 89.6855H192.392V96.906H197.513V89.6855Z" fill="#00A08D"/>
<path d="M206.561 89.6855H201.44V96.906H206.561V89.6855Z" fill="#00A08D"/>
<path d="M215.991 89.6855H210.87V96.906H215.991V89.6855Z" fill="#00A08D"/>
<path d="M225.571 89.6855H220.45V96.906H225.571V89.6855Z" fill="#00A08D"/>
<path d="M234.935 89.6855H229.814V96.906H234.935V89.6855Z" fill="#00A08D"/>
<path d="M243.813 89.6855H238.692V96.906H243.813V89.6855Z" fill="#00A08D"/>
<path d="M252.865 89.6855H247.742V96.906H252.865V89.6855Z" fill="#00A08D"/>
<path d="M262.015 89.6855H256.894V96.906H262.015V89.6855Z" fill="#00A08D"/>
<path d="M271.595 89.6855H266.474V96.906H271.595V89.6855Z" fill="#00A08D"/>
<path d="M280.959 89.6855H275.837V96.906H280.959V89.6855Z" fill="#00A08D"/>
<path d="M289.837 89.6855H284.715V96.906H289.837V89.6855Z" fill="#00A08D"/>
<path d="M298.886 89.6855H293.765V96.906H298.886V89.6855Z" fill="#00A08D"/>
<path d="M123.668 102.426H118.547V109.646H123.668V102.426Z" fill="#00A08D"/>
<path d="M133.246 102.426H128.125V109.646H133.246V102.426Z" fill="#00A08D"/>
<path d="M142.61 102.426H137.489V109.646H142.61V102.426Z" fill="#00A08D"/>
<path d="M151.492 102.426H146.369V109.646H151.492V102.426Z" fill="#00A08D"/>
<path d="M160.54 102.426H155.418V109.646H160.54V102.426Z" fill="#00A08D"/>
<path d="M169.694 102.426H164.57V109.646H169.694V102.426Z" fill="#00A08D"/>
<path d="M179.27 102.426H174.148V109.646H179.27V102.426Z" fill="#00A08D"/>
<path d="M188.633 102.426H183.512V109.646H188.633V102.426Z" fill="#00A08D"/>
<path d="M197.513 102.426H192.392V109.646H197.513V102.426Z" fill="#00A08D"/>
<path d="M206.561 102.426H201.44V109.646H206.561V102.426Z" fill="#00A08D"/>
<path d="M215.991 102.426H210.87V109.646H215.991V102.426Z" fill="#00A08D"/>
<path d="M225.571 102.426H220.45V109.646H225.571V102.426Z" fill="#00A08D"/>
<path d="M234.935 102.426H229.814V109.646H234.935V102.426Z" fill="#00A08D"/>
<path d="M243.813 102.426H238.692V109.646H243.813V102.426Z" fill="#00A08D"/>
<path d="M252.865 102.426H247.742V109.646H252.865V102.426Z" fill="#00A08D"/>
<path d="M262.015 102.426H256.894V109.646H262.015V102.426Z" fill="#00A08D"/>
<path d="M271.595 102.426H266.474V109.646H271.595V102.426Z" fill="#00A08D"/>
<path d="M280.959 102.426H275.837V109.646H280.959V102.426Z" fill="#00A08D"/>
<path d="M289.837 102.426H284.715V109.646H289.837V102.426Z" fill="#00A08D"/>
<path d="M298.886 102.426H293.765V109.646H298.886V102.426Z" fill="#00A08D"/>
<path d="M123.668 114.971H118.547V122.191H123.668V114.971Z" fill="#00A08D"/>
<path d="M133.246 114.971H128.125V122.191H133.246V114.971Z" fill="#00A08D"/>
<path d="M142.61 114.971H137.489V122.191H142.61V114.971Z" fill="#00A08D"/>
<path d="M151.492 114.971H146.369V122.191H151.492V114.971Z" fill="#00A08D"/>
<path d="M160.54 114.971H155.418V122.191H160.54V114.971Z" fill="#00A08D"/>
<path d="M169.694 114.971H164.57V122.191H169.694V114.971Z" fill="#00A08D"/>
<path d="M179.27 114.971H174.148V122.191H179.27V114.971Z" fill="#00A08D"/>
<path d="M188.633 114.971H183.512V122.191H188.633V114.971Z" fill="#00A08D"/>
<path d="M197.513 114.971H192.392V122.191H197.513V114.971Z" fill="#00A08D"/>
<path d="M206.561 114.971H201.44V122.191H206.561V114.971Z" fill="#00A08D"/>
<path d="M215.991 114.971H210.87V122.191H215.991V114.971Z" fill="#00A08D"/>
<path d="M225.571 114.971H220.45V122.191H225.571V114.971Z" fill="#00A08D"/>
<path d="M234.935 114.971H229.814V122.191H234.935V114.971Z" fill="#00A08D"/>
<path d="M243.813 114.971H238.692V122.191H243.813V114.971Z" fill="#00A08D"/>
<path d="M252.865 114.971H247.742V122.191H252.865V114.971Z" fill="#00A08D"/>
<path d="M262.015 114.971H256.894V122.191H262.015V114.971Z" fill="#00A08D"/>
<path d="M271.595 114.971H266.474V122.191H271.595V114.971Z" fill="#00A08D"/>
<path d="M280.959 114.971H275.837V122.191H280.959V114.971Z" fill="#00A08D"/>
<path d="M289.837 114.971H284.715V122.191H289.837V114.971Z" fill="#00A08D"/>
<path d="M298.886 114.971H293.765V122.191H298.886V114.971Z" fill="#00A08D"/>
<path d="M123.668 128.299H118.547V135.519H123.668V128.299Z" fill="#00A08D"/>
<path d="M133.246 128.299H128.125V135.519H133.246V128.299Z" fill="#00A08D"/>
<path d="M142.61 128.299H137.489V135.519H142.61V128.299Z" fill="#00A08D"/>
<path d="M151.492 128.299H146.369V135.519H151.492V128.299Z" fill="#00A08D"/>
<path d="M160.54 128.299H155.418V135.519H160.54V128.299Z" fill="#00A08D"/>
<path d="M169.694 128.299H164.57V135.519H169.694V128.299Z" fill="#00A08D"/>
<path d="M179.27 128.299H174.148V135.519H179.27V128.299Z" fill="#00A08D"/>
<path d="M188.633 128.299H183.512V135.519H188.633V128.299Z" fill="#00A08D"/>
<path d="M197.513 128.299H192.392V135.519H197.513V128.299Z" fill="#00A08D"/>
<path d="M206.561 128.299H201.44V135.519H206.561V128.299Z" fill="#00A08D"/>
<path d="M215.991 128.299H210.87V135.519H215.991V128.299Z" fill="#00A08D"/>
<path d="M225.571 128.299H220.45V135.519H225.571V128.299Z" fill="#00A08D"/>
<path d="M234.935 128.299H229.814V135.519H234.935V128.299Z" fill="#00A08D"/>
<path d="M243.813 128.299H238.692V135.519H243.813V128.299Z" fill="#00A08D"/>
<path d="M252.865 128.299H247.742V135.519H252.865V128.299Z" fill="#00A08D"/>
<path d="M262.015 128.299H256.894V135.519H262.015V128.299Z" fill="#00A08D"/>
<path d="M271.595 128.299H266.474V135.519H271.595V128.299Z" fill="#00A08D"/>
<path d="M280.959 128.299H275.837V135.519H280.959V128.299Z" fill="#00A08D"/>
<path d="M289.837 128.299H284.715V135.519H289.837V128.299Z" fill="#00A08D"/>
<path d="M298.886 128.299H293.765V135.519H298.886V128.299Z" fill="#00A08D"/>
<path d="M123.668 141.039H118.547V148.26H123.668V141.039Z" fill="#00A08D"/>
<path d="M133.246 141.039H128.125V148.26H133.246V141.039Z" fill="#00A08D"/>
<path d="M142.61 141.039H137.489V148.26H142.61V141.039Z" fill="#00A08D"/>
<path d="M151.492 141.039H146.369V148.26H151.492V141.039Z" fill="#00A08D"/>
<path d="M160.54 141.039H155.418V148.26H160.54V141.039Z" fill="#00A08D"/>
<path d="M169.694 141.039H164.57V148.26H169.694V141.039Z" fill="#00A08D"/>
<path d="M179.27 141.039H174.148V148.26H179.27V141.039Z" fill="#00A08D"/>
<path d="M188.633 141.039H183.512V148.26H188.633V141.039Z" fill="#00A08D"/>
<path d="M197.513 141.039H192.392V148.26H197.513V141.039Z" fill="#00A08D"/>
<path d="M206.561 141.039H201.44V148.26H206.561V141.039Z" fill="#00A08D"/>
<path d="M215.991 141.039H210.87V148.26H215.991V141.039Z" fill="#00A08D"/>
<path d="M225.571 141.039H220.45V148.26H225.571V141.039Z" fill="#00A08D"/>
<path d="M234.935 141.039H229.814V148.26H234.935V141.039Z" fill="#00A08D"/>
<path d="M243.813 141.039H238.692V148.26H243.813V141.039Z" fill="#00A08D"/>
<path d="M252.865 141.039H247.742V148.26H252.865V141.039Z" fill="#00A08D"/>
<path d="M262.015 141.039H256.894V148.26H262.015V141.039Z" fill="#00A08D"/>
<path d="M271.595 141.039H266.474V148.26H271.595V141.039Z" fill="#00A08D"/>
<path d="M289.837 141.039H284.715V148.26H289.837V141.039Z" fill="#00A08D"/>
<path d="M280.959 141.039H275.837V148.26H280.959V141.039Z" fill="#00A08D"/>
<path d="M298.886 141.039H293.765V148.26H298.886V141.039Z" fill="#00A08D"/>
<path d="M123.668 153.585H118.547V160.805H123.668V153.585Z" fill="#00A08D"/>
<path d="M133.246 153.585H128.125V160.805H133.246V153.585Z" fill="#00A08D"/>
<path d="M142.61 153.585H137.489V160.805H142.61V153.585Z" fill="#00A08D"/>
<path d="M151.492 153.585H146.369V160.805H151.492V153.585Z" fill="#00A08D"/>
<path d="M160.54 153.585H155.418V160.805H160.54V153.585Z" fill="#00A08D"/>
<path d="M169.694 153.585H164.57V160.805H169.694V153.585Z" fill="#00A08D"/>
<path d="M179.27 153.585H174.148V160.805H179.27V153.585Z" fill="#00A08D"/>
<path d="M188.633 153.585H183.512V160.805H188.633V153.585Z" fill="#00A08D"/>
<path d="M197.513 153.585H192.392V160.805H197.513V153.585Z" fill="#00A08D"/>
<path d="M206.561 153.585H201.44V160.805H206.561V153.585Z" fill="#00A08D"/>
<path d="M215.991 153.585H210.87V160.805H215.991V153.585Z" fill="#00A08D"/>
<path d="M225.571 153.585H220.45V160.805H225.571V153.585Z" fill="#00A08D"/>
<path d="M234.935 153.585H229.814V160.805H234.935V153.585Z" fill="#00A08D"/>
<path d="M243.813 153.585H238.692V160.805H243.813V153.585Z" fill="#00A08D"/>
<path d="M252.865 153.585H247.742V160.805H252.865V153.585Z" fill="#00A08D"/>
<path d="M262.015 153.585H256.894V160.805H262.015V153.585Z" fill="#00A08D"/>
<path d="M271.595 153.585H266.474V160.805H271.595V153.585Z" fill="#00A08D"/>
<path d="M289.837 153.585H284.715V160.805H289.837V153.585Z" fill="#00A08D"/>
<path d="M298.886 153.585H293.765V160.805H298.886V153.585Z" fill="#00A08D"/>
<path d="M353.221 139.312H341.826V216.403H353.221V139.312Z" fill="#00A08D"/>
<path d="M341.826 186.183H329.592V239.73H341.826V186.183Z" fill="#184F48"/>
<path d="M73.5638 117.284V102.267H74.1802V117.284H82.6316V135.815H65.2285V117.284H73.5638Z" fill="#00A08D"/>
<path d="M23.1499 78.4561V66.933H27.8189V61.9199H28.4373V66.933H46.2887H46.6129H49.9911V61.9199H50.6075V66.933H54.9402V117.284H46.2887V95.5886H23.1499V84.0675H46.2887V78.4561H23.1499Z" fill="#00A08D"/>
<path d="M276.484 150.532V215.518H341.826V139.312L276.484 150.532Z" fill="#18BFAB"/>
<path d="M358 186.042H276.484V240.862H358V186.042Z" fill="#18BFAB"/>
<path d="M358 153.536H276.484V171.353H358V153.536Z" fill="#00A08D"/>
<path d="M286.22 200.845H282.033V206.746H286.22V200.845Z" fill="#00A08D"/>
<path d="M294.049 200.845H289.862V206.746H294.049V200.845Z" fill="#00A08D"/>
<path d="M301.702 200.845H297.515V206.746H301.702V200.845Z" fill="#00A08D"/>
<path d="M308.959 200.845H304.772V206.746H308.959V200.845Z" fill="#00A08D"/>
<path d="M316.355 200.845H312.168V206.746H316.355V200.845Z" fill="#00A08D"/>
<path d="M323.836 200.845H319.649V206.746H323.836V200.845Z" fill="#00A08D"/>
<path d="M331.665 200.845H327.479V206.746H331.665V200.845Z" fill="#00A08D"/>
<path d="M339.318 200.845H335.131V206.746H339.318V200.845Z" fill="#00A08D"/>
<path d="M346.574 200.845H342.388V206.746H346.574V200.845Z" fill="#00A08D"/>
<path d="M353.971 200.845H349.785V206.746H353.971V200.845Z" fill="#00A08D"/>
<path d="M286.22 211.258H282.033V217.157H286.22V211.258Z" fill="#00A08D"/>
<path d="M294.049 211.258H289.862V217.157H294.049V211.258Z" fill="#00A08D"/>
<path d="M301.702 211.258H297.515V217.157H301.702V211.258Z" fill="#00A08D"/>
<path d="M308.959 211.258H304.772V217.157H308.959V211.258Z" fill="#00A08D"/>
<path d="M316.355 211.258H312.168V217.157H316.355V211.258Z" fill="#00A08D"/>
<path d="M323.836 211.258H319.649V217.157H323.836V211.258Z" fill="#00A08D"/>
<path d="M331.665 211.258H327.479V217.157H331.665V211.258Z" fill="#00A08D"/>
<path d="M339.318 211.258H335.131V217.157H339.318V211.258Z" fill="#00A08D"/>
<path d="M346.574 211.258H342.388V217.157H346.574V211.258Z" fill="#00A08D"/>
<path d="M353.971 211.258H349.785V217.157H353.971V211.258Z" fill="#00A08D"/>
<path d="M286.22 179.862H282.033V185.764H286.22V179.862Z" fill="#00A08D"/>
<path d="M294.049 179.862H289.862V185.764H294.049V179.862Z" fill="#00A08D"/>
<path d="M301.702 179.862H297.515V185.764H301.702V179.862Z" fill="#00A08D"/>
<path d="M308.959 179.862H304.772V185.764H308.959V179.862Z" fill="#00A08D"/>
<path d="M316.355 179.862H312.168V185.764H316.355V179.862Z" fill="#00A08D"/>
<path d="M323.836 179.862H319.649V185.764H323.836V179.862Z" fill="#00A08D"/>
<path d="M331.665 179.862H327.479V185.764H331.665V179.862Z" fill="#00A08D"/>
<path d="M339.318 179.862H335.131V185.764H339.318V179.862Z" fill="#00A08D"/>
<path d="M286.22 190.276H282.033V196.176H286.22V190.276Z" fill="#00A08D"/>
<path d="M294.049 190.276H289.862V196.176H294.049V190.276Z" fill="#00A08D"/>
<path d="M301.702 190.276H297.515V196.176H301.702V190.276Z" fill="#00A08D"/>
<path d="M308.959 190.276H304.772V196.176H308.959V190.276Z" fill="#00A08D"/>
<path d="M316.355 190.276H312.168V196.176H316.355V190.276Z" fill="#00A08D"/>
<path d="M323.836 190.276H319.649V196.176H323.836V190.276Z" fill="#00A08D"/>
<path d="M331.665 190.276H327.479V196.176H331.665V190.276Z" fill="#00A08D"/>
<path d="M339.318 190.276H335.131V196.176H339.318V190.276Z" fill="#00A08D"/>
<path d="M346.574 190.276H342.388V196.176H346.574V190.276Z" fill="#00A08D"/>
<path d="M353.971 190.276H349.785V196.176H353.971V190.276Z" fill="#00A08D"/>
<path d="M286.22 221.51H282.033V227.411H286.22V221.51Z" fill="#00A08D"/>
<path d="M294.049 221.51H289.862V227.411H294.049V221.51Z" fill="#00A08D"/>
<path d="M301.702 221.51H297.515V227.411H301.702V221.51Z" fill="#00A08D"/>
<path d="M308.959 221.51H304.772V227.411H308.959V221.51Z" fill="#00A08D"/>
<path d="M316.355 221.51H312.168V227.411H316.355V221.51Z" fill="#00A08D"/>
<path d="M323.836 221.51H319.649V227.411H323.836V221.51Z" fill="#00A08D"/>
<path d="M331.665 221.51H327.479V227.411H331.665V221.51Z" fill="#00A08D"/>
<path d="M339.318 221.51H335.131V227.411H339.318V221.51Z" fill="#00A08D"/>
<path d="M346.574 221.51H342.388V227.411H346.574V221.51Z" fill="#00A08D"/>
<path d="M353.971 221.51H349.785V227.411H353.971V221.51Z" fill="#00A08D"/>
<path d="M337.443 127.074H336.236V142.526H337.443V127.074Z" fill="#18BFAB"/>
<path d="M286.22 158.543H282.702V164.629H286.22V158.543Z" fill="#18BFAB"/>
<path d="M321.146 158.543H317.628V164.629H321.146V158.543Z" fill="#18BFAB"/>
<path d="M348.93 158.543H345.412V164.629H348.93V158.543Z" fill="#18BFAB"/>
<path d="M59.3989 241L176.71 241V172.38H59.3989L59.3989 241Z" fill="#00A08D"/>
<path d="M132.694 188.764H138.948V179.214H132.694V188.764Z" fill="#18BFAB"/>
<path d="M121.334 188.764H127.588V179.214H121.334V188.764Z" fill="#18BFAB"/>
<path d="M110.304 188.764H116.558V179.214H110.304V188.764Z" fill="#18BFAB"/>
<path d="M99.2025 188.764H105.457V179.214H99.2025V188.764Z" fill="#18BFAB"/>
<path d="M88.1713 188.764H94.4253V179.214H88.1713V188.764Z" fill="#18BFAB"/>
<path d="M76.6059 188.764H82.8599V179.214H76.6059V188.764Z" fill="#18BFAB"/>
<path d="M65.5751 188.764H71.8291V179.214H65.5751V188.764Z" fill="#18BFAB"/>
<path d="M165.855 202.887H172.109V193.337H165.855V202.887Z" fill="#18BFAB"/>
<path d="M154.826 202.887H161.08V193.337H154.826V202.887Z" fill="#18BFAB"/>
<path d="M143.723 202.887H149.977V193.337H143.723V202.887Z" fill="#18BFAB"/>
<path d="M132.694 202.887H138.948V193.337H132.694V202.887Z" fill="#18BFAB"/>
<path d="M121.334 202.887H127.588V193.337H121.334V202.887Z" fill="#18BFAB"/>
<path d="M110.304 202.887H116.558V193.337H110.304V202.887Z" fill="#18BFAB"/>
<path d="M99.2025 202.887H105.457V193.337H99.2025V202.887Z" fill="#18BFAB"/>
<path d="M88.1713 202.887H94.4253V193.337H88.1713V202.887Z" fill="#18BFAB"/>
<path d="M76.6059 202.887H82.8599V193.337H76.6059V202.887Z" fill="#18BFAB"/>
<path d="M65.5751 202.887H71.8291V193.337H65.5751V202.887Z" fill="#18BFAB"/>
<path d="M165.855 218.058H172.109V208.508H165.855V218.058Z" fill="#18BFAB"/>
<path d="M154.826 218.058H161.08V208.508H154.826V218.058Z" fill="#18BFAB"/>
<path d="M143.723 218.058H149.977V208.508H143.723V218.058Z" fill="#18BFAB"/>
<path d="M132.694 218.058H138.948V208.508H132.694V218.058Z" fill="#18BFAB"/>
<path d="M121.334 218.058H127.588V208.508H121.334V218.058Z" fill="#18BFAB"/>
<path d="M110.304 218.058H116.558V208.508H110.304V218.058Z" fill="#18BFAB"/>
<path d="M99.2025 218.058H105.457V208.508H99.2025V218.058Z" fill="#18BFAB"/>
<path d="M88.1713 218.058H94.4253V208.508H88.1713V218.058Z" fill="#18BFAB"/>
<path d="M76.6059 218.058H82.8599V208.508H76.6059V218.058Z" fill="#18BFAB"/>
<path d="M65.5751 218.058H71.8291V208.508H65.5751V218.058Z" fill="#18BFAB"/>
<path d="M165.855 232.181H172.109V222.631H165.855V232.181Z" fill="#18BFAB"/>
<path d="M154.826 232.181H161.08V222.631H154.826V232.181Z" fill="#18BFAB"/>
<path d="M99.8127 175.316H75.333V153.973L99.8127 163.344V175.316Z" fill="#00A08D"/>
<path d="M220.462 241H276.484V180.062L220.462 199.456V241Z" fill="#00A08D"/>
<path d="M221.941 203.156H275.003V201.273H221.941V203.156Z" fill="#18BFAB"/>
<path d="M221.941 209.209H275.003V207.326H221.941V209.209Z" fill="#18BFAB"/>
<path d="M221.941 215.26H275.003V213.377H221.941V215.26Z" fill="#18BFAB"/>
<path d="M221.941 221.313H275.003V219.43H221.941V221.313Z" fill="#18BFAB"/>
<path d="M221.941 227.367H275.003V225.484H221.941V227.367Z" fill="#18BFAB"/>
<path d="M221.941 233.419H275.003V231.536H221.941V233.419Z" fill="#18BFAB"/>
<path d="M70.624 172.182H75.3311V153.972H70.624V172.182Z" fill="#00A08D"/>
<path d="M90.0547 169.364V163.11H80.5046V169.364H90.0547Z" fill="#18BFAB"/>
<path d="M268.227 65.3262H271.473V37.7873H268.227V65.3262Z" fill="#00A08D"/>
<path d="M261.771 65.3262H265.017V37.7873H261.771V65.3262Z" fill="#00A08D"/>
<path d="M255.402 65.3262H258.648V37.7873H255.402V65.3262Z" fill="#00A08D"/>
<path d="M248.81 65.3262H252.056V37.7873H248.81V65.3262Z" fill="#00A08D"/>
</g>
<defs>
<clipPath id="clip0_1_43055">
<rect width="372" height="241" fill="white" transform="translate(-14)"/>
</clipPath>
</defs>
</svg>
